<?xml version="1.0" encoding="UTF-8"?>
<svg width="73px" height="69px" viewBox="0 0 73 69" version="1.1" xmlns="http://www.w3.org/2000/svg" xmlns:xlink="http://www.w3.org/1999/xlink">
    <!-- Generator: Sketch 49.3 (51167) - http://www.bohemiancoding.com/sketch -->
    <title>B</title>
    <desc>Created with Sketch.</desc>
    <defs></defs>
    <g id="B" stroke="none" stroke-width="1" fill="none" fill-rule="evenodd">
        <path d="M10.1186093,46.0229338 L33.2159669,46.0229338 C34.2075942,46.0229338 35.0114669,46.8268065 35.0114669,47.8184338 L35.0114669,58.2274338 C35.0114669,59.2190611 34.2075942,60.0229338 33.2159669,60.0229338 L10.132873,60.0229338 C9.14124578,60.0229338 8.33737305,59.2190611 8.33737305,58.2274338 C8.33737305,57.8239562 8.47327114,57.4322382 8.72315145,57.1154512 L11.0596811,54.1533038 C11.5727928,53.5028038 11.574184,52.585674 11.063048,51.9336204 L8.70552081,48.9261346 C8.09375453,48.1457074 8.23048123,47.0171116 9.01090846,46.4053453 C9.32698275,46.157579 9.71699865,46.0229338 10.1186093,46.0229338 Z" id="Rectangle-22" fill="#F3A9A9" transform="translate(23.011467, 53.022934) rotate(-60.000000) translate(-23.011467, -53.022934) "></path>
        <path d="M38.1186093,46.0229338 L61.2159669,46.0229338 C62.2075942,46.0229338 63.0114669,46.8268065 63.0114669,47.8184338 L63.0114669,58.2274338 C63.0114669,59.2190611 62.2075942,60.0229338 61.2159669,60.0229338 L38.132873,60.0229338 C37.1412458,60.0229338 36.337373,59.2190611 36.337373,58.2274338 C36.337373,57.8239562 36.4732711,57.4322382 36.7231515,57.1154512 L39.0596811,54.1533038 C39.5727928,53.5028038 39.574184,52.585674 39.063048,51.9336204 L36.7055208,48.9261346 C36.0937545,48.1457074 36.2304812,47.0171116 37.0109085,46.4053453 C37.3269827,46.157579 37.7169987,46.0229338 38.1186093,46.0229338 Z" id="Rectangle-22-Copy" fill="#F3A9A9" transform="translate(51.011467, 53.022934) scale(-1, 1) rotate(-60.000000) translate(-51.011467, -53.022934) "></path>
        <polygon id="Star" fill="#F8E71C" transform="translate(36.488533, 32.500000) rotate(18.000000) translate(-36.488533, -32.500000) " points="36.4885331 55.7163086 27.6815488 59.6051107 22.8423293 51.2823882 13.4315488 49.2518797 14.4085115 39.6742339 7.98853311 32.5 14.4085115 25.3257661 13.4315488 15.7481203 22.8423293 13.7176118 27.6815488 5.39488929 36.4885331 9.28369141 45.2955174 5.39488929 50.1347369 13.7176118 59.5455174 15.7481203 58.5685547 25.3257661 64.9885331 32.5 58.5685547 39.6742339 59.5455174 49.2518797 50.1347369 51.2823882 45.2955174 59.6051107"></polygon>
        <circle id="Oval" fill="#FFFFFF" cx="36.0764381" cy="32.0879049" r="18.4724765"></circle>
        <circle id="Oval-Copy" fill="#F8E71C" cx="36.0764381" cy="32.0879049" r="14.8680908"></circle>
    </g>
</svg>