<?xml version="1.0" encoding="UTF-8"?>
<svg width="73px" height="69px" viewBox="0 0 73 69" version="1.1" xmlns="http://www.w3.org/2000/svg" xmlns:xlink="http://www.w3.org/1999/xlink">
    <!-- Generator: Sketch 49.3 (51167) - http://www.bohemiancoding.com/sketch -->
    <title>B</title>
    <desc>Created with Sketch.</desc>
    <defs>
        <path d="M8.1186093,46.0229338 L31.2159669,46.0229338 C32.2075942,46.0229338 33.0114669,46.8268065 33.0114669,47.8184338 L33.0114669,58.2274338 C33.0114669,59.2190611 32.2075942,60.0229338 31.2159669,60.0229338 L8.13287305,60.0229338 C7.14124578,60.0229338 6.33737305,59.2190611 6.33737305,58.2274338 C6.33737305,57.8239562 6.47327114,57.4322382 6.72315145,57.1154512 L9.05968109,54.1533038 C9.57279283,53.5028038 9.57418396,52.585674 9.06304799,51.9336204 L6.70552081,48.9261346 C6.09375453,48.1457074 6.23048123,47.0171116 7.01090846,46.4053453 C7.32698275,46.157579 7.71699865,46.0229338 8.1186093,46.0229338 Z" id="path-1"></path>
        <path d="M40.1186093,46.0229338 L63.2159669,46.0229338 C64.2075942,46.0229338 65.0114669,46.8268065 65.0114669,47.8184338 L65.0114669,58.2274338 C65.0114669,59.2190611 64.2075942,60.0229338 63.2159669,60.0229338 L40.132873,60.0229338 C39.1412458,60.0229338 38.337373,59.2190611 38.337373,58.2274338 C38.337373,57.8239562 38.4732711,57.4322382 38.7231515,57.1154512 L41.0596811,54.1533038 C41.5727928,53.5028038 41.574184,52.585674 41.063048,51.9336204 L38.7055208,48.9261346 C38.0937545,48.1457074 38.2304812,47.0171116 39.0109085,46.4053453 C39.3269827,46.157579 39.7169987,46.0229338 40.1186093,46.0229338 Z" id="path-2"></path>
    </defs>
    <g id="B" stroke="none" stroke-width="1" fill="none" fill-rule="evenodd">
        <g id="Rectangle-22" transform="translate(21.011467, 53.022934) rotate(-45.000000) translate(-21.011467, -53.022934) ">
            <use fill="#F3A9A9" fill-rule="evenodd" xlink:href="#path-1"></use>
            <path stroke="#979797" stroke-width="1" d="M8.1186093,46.5229338 C7.82883676,46.5229338 7.54743013,46.6200838 7.3193743,46.7988536 C6.75627574,47.240259 6.65762386,48.0545702 7.09902916,48.6176688 L9.45655634,51.6251546 C10.1100304,52.4587882 10.1082518,53.6313147 9.45225185,54.462962 L7.11572221,57.4251094 C6.93542706,57.6536795 6.83737305,57.9363142 6.83737305,58.2274338 C6.83737305,58.9429187 7.41738815,59.5229338 8.13287305,59.5229338 L31.2159669,59.5229338 C31.9314518,59.5229338 32.5114669,58.9429187 32.5114669,58.2274338 L32.5114669,47.8184338 C32.5114669,47.1029489 31.9314518,46.5229338 31.2159669,46.5229338 L8.1186093,46.5229338 Z"></path>
        </g>
        <g id="Rectangle-22-Copy" transform="translate(53.011467, 53.022934) scale(-1, 1) rotate(-45.000000) translate(-53.011467, -53.022934) ">
            <use fill="#F3A9A9" fill-rule="evenodd" xlink:href="#path-2"></use>
            <path stroke="#979797" stroke-width="1" d="M40.1186093,46.5229338 C39.8288368,46.5229338 39.5474301,46.6200838 39.3193743,46.7988536 C38.7562757,47.240259 38.6576239,48.0545702 39.0990292,48.6176688 L41.4565563,51.6251546 C42.1100304,52.4587882 42.1082518,53.6313147 41.4522519,54.462962 L39.1157222,57.4251094 C38.9354271,57.6536795 38.837373,57.9363142 38.837373,58.2274338 C38.837373,58.9429187 39.4173882,59.5229338 40.132873,59.5229338 L63.2159669,59.5229338 C63.9314518,59.5229338 64.5114669,58.9429187 64.5114669,58.2274338 L64.5114669,47.8184338 C64.5114669,47.1029489 63.9314518,46.5229338 63.2159669,46.5229338 L40.1186093,46.5229338 Z"></path>
        </g>
        <polygon id="Star" stroke="#B8B7B7" fill="#F8E71C" stroke-linecap="round" stroke-linejoin="round" transform="translate(36.488533, 32.500000) rotate(18.000000) translate(-36.488533, -32.500000) " points="36.4885331 55.7163086 27.6815488 59.6051107 22.8423293 51.2823882 13.4315488 49.2518797 14.4085115 39.6742339 7.98853311 32.5 14.4085115 25.3257661 13.4315488 15.7481203 22.8423293 13.7176118 27.6815488 5.39488929 36.4885331 9.28369141 45.2955174 5.39488929 50.1347369 13.7176118 59.5455174 15.7481203 58.5685547 25.3257661 64.9885331 32.5 58.5685547 39.6742339 59.5455174 49.2518797 50.1347369 51.2823882 45.2955174 59.6051107"></polygon>
        <circle id="Oval" fill="#FFFFFF" cx="36.0764381" cy="32.0879049" r="18.4724765"></circle>
        <circle id="Oval-Copy" fill="#F8E71C" cx="36.0764381" cy="32.0879049" r="14.8680908"></circle>
    </g>
</svg>