<?xml version="1.0" encoding="UTF-8"?>
<svg width="18px" height="23px" viewBox="0 0 18 23" version="1.1" xmlns="http://www.w3.org/2000/svg" xmlns:xlink="http://www.w3.org/1999/xlink">
    <!-- Generator: Sketch 49 (51002) - http://www.bohemiancoding.com/sketch -->
    <title>Group 2</title>
    <desc>Created with Sketch.</desc>
    <defs></defs>
    <g id="Symbols" stroke="none" stroke-width="1" fill="none" fill-rule="evenodd">
        <g id="nav-icons" transform="translate(-300.000000, -8.000000)" fill="#80ADD7">
            <g id="Group-2">
                <g transform="translate(300.000000, 8.000000)">
                    <rect id="Rectangle" x="0" y="6" width="18" height="17" rx="2"></rect>
                    <path d="M13.9819211,8 L13.4067958,8 C13.4315682,7.86479229 13.4444444,7.72401454 13.4444444,7.57766677 C13.4444444,3.73250451 11.4545989,0.615384615 9,0.615384615 C6.54540111,0.615384615 4.55555556,3.73250451 4.55555556,7.57766677 C4.55555556,7.72401454 4.56843183,7.86479229 4.59320424,8 L4.01807894,8 C4.00612807,7.90003931 4,7.79747521 4,7.69230769 C4,3.44396346 6.23857625,0 9,0 C11.7614237,0 14,3.44396346 14,7.69230769 C14,7.79747521 13.9938719,7.90003931 13.9819192,8 Z" id="Combined-Shape"></path>
                </g>
            </g>
        </g>
    </g>
</svg>