<?xml version="1.0" encoding="UTF-8"?>
<svg width="22px" height="16px" viewBox="0 0 22 16" version="1.1" xmlns="http://www.w3.org/2000/svg" xmlns:xlink="http://www.w3.org/1999/xlink">
    <!-- Generator: Sketch 49.3 (51167) - http://www.bohemiancoding.com/sketch -->
    <title>ic_person_add_black_24px</title>
    <desc>Created with Sketch.</desc>
    <defs></defs>
    <g id="Page-1" stroke="none" stroke-width="1" fill="none" fill-rule="evenodd">
        <g id="iPhone-8" transform="translate(-113.000000, -482.000000)">
            <g id="ic_person_add_black_24px" transform="translate(112.000000, 478.000000)">
                <polygon id="Shape" points="0 0 24 0 24 24 0 24"></polygon>
                <path d="M15,12 C17.21,12 19,10.21 19,8 C19,5.79 17.21,4 15,4 C12.79,4 11,5.79 11,8 C11,10.21 12.79,12 15,12 Z M6,10 L6,7 L4,7 L4,10 L1,10 L1,12 L4,12 L4,15 L6,15 L6,12 L9,12 L9,10 L6,10 Z M15,14 C12.33,14 7,15.34 7,18 L7,20 L23,20 L23,18 C23,15.34 17.67,14 15,14 Z" id="Shape" fill="#77D6AC" fill-rule="nonzero"></path>
            </g>
        </g>
    </g>
</svg>