<?xml version="1.0" encoding="UTF-8"?>
<svg width="27px" height="26px" viewBox="0 0 27 26" version="1.1" xmlns="http://www.w3.org/2000/svg" xmlns:xlink="http://www.w3.org/1999/xlink">
    <!-- Generator: Sketch 49 (51002) - http://www.bohemiancoding.com/sketch -->
    <title>Group 2</title>
    <desc>Created with Sketch.</desc>
    <defs></defs>
    <g id="Page-1" stroke="none" stroke-width="1" fill="none" fill-rule="evenodd">
        <g id="iPhone-8-Copy-10" transform="translate(-300.000000, -590.000000)">
            <g id="Group-2" transform="translate(300.000000, 590.000000)">
                <path d="M12.5,25 C5.59644063,25 0,19.4035594 0,12.5 C0,5.59644063 5.59644063,0 12.5,0 C19.4035594,0 25,5.59644063 25,12.5 C25,19.4035594 19.4035594,25 12.5,25 Z M12.5,24 C18.8512746,24 24,18.8512746 24,12.5 C24,6.14872538 18.8512746,1 12.5,1 C6.14872538,1 1,6.14872538 1,12.5 C1,18.8512746 6.14872538,24 12.5,24 Z M12.5,3.25 C13.1293045,3.25 13.750854,3.33036607 14.25,3.5 C15.3371957,3.86948162 16,4.5 16,4.5 C18,6 17,10 17,10 C17.1149791,10.1149791 17.1348552,10.1332 17.25,10.25 C17.4646795,10.4677655 17.4982818,10.7852077 17.5,11 C17.5053755,11.6719704 16.75,12.25 16.75,12.25 C16.75,14.75 15,16.75 15,16.75 C14.5,18.75 15.5,19.75 15.5,19.75 C15.5,19.75 18.6334442,20.5980718 20,21 C20,21 19.3391913,21.7149461 18.5,22.25 C17.9277262,22.6148719 16.9899147,23.0472767 16.5,23.25 C15.9458314,23.4793112 15.3538007,23.5531064 14.5556034,23.7341855 C13.6133765,23.9479392 12.5,24 12.5,24 C12.5,24 11.3866235,23.9479392 10.4443966,23.7341855 C9.64619926,23.5531064 9.05416863,23.4793112 8.5,23.25 C8.01008529,23.0472767 7.07227383,22.6148719 6.5,22.25 C5.66080868,21.7149461 5,21 5,21 C6.36655577,20.5980718 9.5,19.75 9.5,19.75 C9.5,19.75 10.5,18.75 10,16.75 C10,16.75 8.25,14.75 8.25,12.25 C8.25,12.25 7.49462454,11.6719704 7.5,11 C7.50171824,10.7852077 7.53532054,10.4677655 7.75,10.25 C7.86514481,10.1332 7.88502094,10.1149791 8,10 C8,10 7,6 9,4.5 C9,4.5 9.66280432,3.86948162 10.75,3.5 C11.249146,3.33036607 11.8706955,3.25 12.5,3.25 Z" id="Account-Icon" fill="#77D6AC"></path>
                <path d="M19.5,18.5 L19.5,14.351 C19.5,14.1571481 19.6571481,14 19.851,14 L22.149,14 C22.3428519,14 22.5,14.1571481 22.5,14.351 L22.5,18.5 L26.649,18.5 C26.8428519,18.5 27,18.6571481 27,18.851 L27,21.149 C27,21.3428519 26.8428519,21.5 26.649,21.5 L22.5,21.5 L22.5,25.649 C22.5,25.8428519 22.3428519,26 22.149,26 L19.851,26 C19.6571481,26 19.5,25.8428519 19.5,25.649 L19.5,21.5 L15.351,21.5 C15.1571481,21.5 15,21.3428519 15,21.149 L15,18.851 C15,18.6571481 15.1571481,18.5 15.351,18.5 L19.5,18.5 Z" id="Combined-Shape-Copy-4" fill="#FFFFFF"></path>
                <path d="M20.5,19.5 L20.5,15.351 C20.5,15.1571481 20.6571481,15 20.851,15 L21.149,15 C21.3428519,15 21.5,15.1571481 21.5,15.351 L21.5,19.5 L25.649,19.5 C25.8428519,19.5 26,19.6571481 26,19.851 L26,20.149 C26,20.3428519 25.8428519,20.5 25.649,20.5 L21.5,20.5 L21.5,24.649 C21.5,24.8428519 21.3428519,25 21.149,25 L20.851,25 C20.6571481,25 20.5,24.8428519 20.5,24.649 L20.5,20.5 L16.351,20.5 C16.1571481,20.5 16,20.3428519 16,20.149 L16,19.851 C16,19.6571481 16.1571481,19.5 16.351,19.5 L20.5,19.5 Z" id="Combined-Shape" fill="#77D6AC"></path>
            </g>
        </g>
    </g>
</svg>