<?xml version="1.0" encoding="UTF-8"?>
<svg width="22px" height="14px" viewBox="0 0 22 14" version="1.1" xmlns="http://www.w3.org/2000/svg" xmlns:xlink="http://www.w3.org/1999/xlink">
    <!-- Generator: Sketch 49.3 (51167) - http://www.bohemiancoding.com/sketch -->
    <title>ic_people_outline_black_24px</title>
    <desc>Created with Sketch.</desc>
    <defs></defs>
    <g id="Page-1" stroke="none" stroke-width="1" fill="none" fill-rule="evenodd">
        <g id="iPhone-8" transform="translate(-113.000000, -447.000000)">
            <g id="ic_people_outline_black_24px" transform="translate(112.000000, 442.000000)">
                <polygon id="Shape" points="0 0 24 0 24 24 0 24"></polygon>
                <path d="M16.5,13 C15.3,13 13.43,13.34 12,14 C10.57,13.33 8.7,13 7.5,13 C5.33,13 1,14.08 1,16.25 L1,19 L23,19 L23,16.25 C23,14.08 18.67,13 16.5,13 Z M12.5,17.5 L2.5,17.5 L2.5,16.25 C2.5,15.71 5.06,14.5 7.5,14.5 C9.94,14.5 12.5,15.71 12.5,16.25 L12.5,17.5 Z M21.5,17.5 L14,17.5 L14,16.25 C14,15.79 13.8,15.39 13.48,15.03 C14.36,14.73 15.44,14.5 16.5,14.5 C18.94,14.5 21.5,15.71 21.5,16.25 L21.5,17.5 Z M7.5,12 C9.43,12 11,10.43 11,8.5 C11,6.57 9.43,5 7.5,5 C5.57,5 4,6.57 4,8.5 C4,10.43 5.57,12 7.5,12 Z M7.5,6.5 C8.6,6.5 9.5,7.4 9.5,8.5 C9.5,9.6 8.6,10.5 7.5,10.5 C6.4,10.5 5.5,9.6 5.5,8.5 C5.5,7.4 6.4,6.5 7.5,6.5 Z M16.5,12 C18.43,12 20,10.43 20,8.5 C20,6.57 18.43,5 16.5,5 C14.57,5 13,6.57 13,8.5 C13,10.43 14.57,12 16.5,12 Z M16.5,6.5 C17.6,6.5 18.5,7.4 18.5,8.5 C18.5,9.6 17.6,10.5 16.5,10.5 C15.4,10.5 14.5,9.6 14.5,8.5 C14.5,7.4 15.4,6.5 16.5,6.5 Z" id="Shape" fill="#9B9B9B" fill-rule="nonzero"></path>
            </g>
        </g>
    </g>
</svg>