<?xml version="1.0" encoding="UTF-8"?>
<svg width="120px" height="120px" viewBox="0 0 120 120" version="1.1" xmlns="http://www.w3.org/2000/svg" xmlns:xlink="http://www.w3.org/1999/xlink">
    <!-- Generator: Sketch 49 (51002) - http://www.bohemiancoding.com/sketch -->
    <title>g_gogoro</title>
    <desc>Created with Sketch.</desc>
    <defs></defs>
    <g id="g_gogoro" stroke="none" stroke-width="1" fill="none" fill-rule="evenodd">
        <g id="gogoro-copy" transform="translate(28.000000, 0.000000)" fill="#323237">
            <path d="M32.0017294,99.0967742 C44.9342299,99.0967742 54.386805,83.5066552 53.1146468,64.2752688 C51.8424887,45.0438824 49.9512195,27.8709677 32.0017294,27.8709677 C14.0522393,27.8709677 12.1609702,45.0438824 10.888812,64.2752688 C9.61665383,83.5066552 19.0692289,99.0967742 32.0017294,99.0967742 Z" id="Oval-2"></path>
            <path d="M61.6585366,24.0745171 C60.390794,24.0255335 59.0868575,24 57.7560976,24 C45.2556037,24 35.1219512,26.2530187 35.1219512,29.0322581 C35.1219512,29.412115 35.3112528,29.782142 35.670026,30.13793 C33.9640066,30.1744424 32.2181397,30.1935484 30.4390244,30.1935484 C29.7117833,30.1935484 28.9930315,30.1901435 28.2830551,30.1834611 C28.6722234,29.8137472 28.8780488,29.4283467 28.8780488,29.0322581 C28.8780488,26.2530187 18.7443963,24 6.24390244,24 C4.91314252,24 3.60920603,24.0255335 2.34146341,24.0745171 L2.34146341,21.22127 C10.2121938,18.5802476 20.6058659,17.0322581 32,17.0322581 C43.3941341,17.0322581 53.7878062,18.5802476 61.6585366,21.22127 L61.6585366,24.0745171 Z M31.5599303,92.9032258 L32.4400697,92.9032258 C34.783335,92.9032258 36.6829268,94.8028177 36.6829268,97.1460829 L36.6829268,115.757143 C36.6829268,118.100408 34.783335,120 32.4400697,120 L31.5599303,120 C29.216665,120 27.3170732,118.100408 27.3170732,115.757143 L27.3170732,97.1460829 C27.3170732,94.8028177 29.216665,92.9032258 31.5599303,92.9032258 Z" id="Combined-Shape"></path>
            <g id="Group">
                <ellipse id="Oval-3" cx="5.85365854" cy="5.80645161" rx="5.85365854" ry="5.80645161"></ellipse>
                <path d="M5.46341463,7.74193548 L8.67595819,7.74193548 C12.9364405,7.74193548 16.3902439,11.1957388 16.3902439,15.4562212 L16.3902439,18.6082949 C16.3902439,19.1288599 16.3386819,19.6373818 16.2403865,20.1290323 L14.5585807,20.1290323 C14.6820669,19.642183 14.7476851,19.1322575 14.7476851,18.6070061 L14.7476851,15.4659923 C14.7476851,12.0576064 11.9846424,9.29456369 8.57625653,9.29456369 L5.46341463,9.29456369 L5.46341463,7.74193548 Z" id="Combined-Shape" transform="translate(10.926829, 13.935484) rotate(6.000000) translate(-10.926829, -13.935484) "></path>
            </g>
            <g id="Group-Copy" transform="translate(55.000000, 10.500000) scale(-1, 1) translate(-55.000000, -10.500000) translate(46.000000, 0.000000)">
                <ellipse id="Oval-3" cx="5.85365854" cy="5.80645161" rx="5.85365854" ry="5.80645161"></ellipse>
                <path d="M5.46341463,7.74193548 L8.67595819,7.74193548 C12.9364405,7.74193548 16.3902439,11.1957388 16.3902439,15.4562212 L16.3902439,18.6082949 C16.3902439,19.1288599 16.3386819,19.6373818 16.2403865,20.1290323 L14.5585807,20.1290323 C14.6820669,19.642183 14.7476851,19.1322575 14.7476851,18.6070061 L14.7476851,15.4659923 C14.7476851,12.0576064 11.9846424,9.29456369 8.57625653,9.29456369 L5.46341463,9.29456369 L5.46341463,7.74193548 Z" id="Combined-Shape" transform="translate(10.926829, 13.935484) rotate(6.000000) translate(-10.926829, -13.935484) "></path>
            </g>
        </g>
    </g>
</svg>