<?xml version="1.0" encoding="UTF-8"?>
<svg width="66px" height="32px" viewBox="0 0 66 32" version="1.1" xmlns="http://www.w3.org/2000/svg" xmlns:xlink="http://www.w3.org/1999/xlink">
    <!-- Generator: Sketch 49 (51002) - http://www.bohemiancoding.com/sketch -->
    <title>g_play</title>
    <desc>Created with Sketch.</desc>
    <defs></defs>
    <g id="g_play" stroke="none" stroke-width="1" fill="none" fill-rule="evenodd">
        <text id="去玩耍" font-family="HiraginoSansGB-W3, Hiragino Sans GB" font-size="10.8" font-weight="300" fill="#5B4D4C">
            <tspan x="33" y="21">去玩耍</tspan>
        </text>
        <path d="M4.32814036,16.2576312 L3.15483445,16.2576312 C2.65036002,16.2576312 2.2414027,16.6665886 2.2414027,17.171063 C2.2414027,17.6755374 2.65036002,18.0844947 3.15483445,18.0844947 L4.32814036,18.0844947 L4.32814036,19.2578006 C4.32814036,19.7622751 4.73709768,20.1712324 5.2415721,20.1712324 C5.74604653,20.1712324 6.15500385,19.7622751 6.15500385,19.2578006 L6.15500385,18.0844947 L7.32830976,18.0844947 C7.83278418,18.0844947 8.24174151,17.6755374 8.24174151,17.171063 C8.24174151,16.6665886 7.83278418,16.2576312 7.32830976,16.2576312 L6.15500385,16.2576312 L6.15500385,15.0843253 C6.15500385,14.5798509 5.74604653,14.1708936 5.2415721,14.1708936 C4.73709768,14.1708936 4.32814036,14.5798509 4.32814036,15.0843253 L4.32814036,16.2576312 Z M6.87023549,8.28586328 C10.8133153,9.28233427 9.61324752,11.2752763 13.8992038,11.2752763 C18.1851601,11.2752763 17.426243,9.39068665 21.0996104,8.11978478 C23.4997459,7.28939228 25.8998814,10.9431193 26.9285109,13.9325322 C27.9571404,16.9219452 29.1572082,23.0668497 25.7284432,24.7276347 C22.2996781,26.3884197 20.842453,19.9113582 13.8992038,19.9113582 C6.95595462,19.9113582 5.84160598,26.3884197 2.06996445,24.5615562 C-1.70167709,22.7346927 0.619884174,14.4489297 1.72708795,12.4378258 C2.83429172,10.4267218 4.09627249,7.58484432 6.87023549,8.28586328 Z M23.6711841,16.7558667 C24.428646,16.7558667 25.0426902,16.1610197 25.0426902,15.4272387 C25.0426902,14.6934578 24.428646,14.0986107 23.6711841,14.0986107 C22.9137223,14.0986107 22.2996781,14.6934578 22.2996781,15.4272387 C22.2996781,16.1610197 22.9137223,16.7558667 23.6711841,16.7558667 Z M21.2710486,19.5792012 C22.0285105,19.5792012 22.6425546,18.9843542 22.6425546,18.2505732 C22.6425546,17.5167922 22.0285105,16.9219452 21.2710486,16.9219452 C20.5135868,16.9219452 19.8995426,17.5167922 19.8995426,18.2505732 C19.8995426,18.9843542 20.5135868,19.5792012 21.2710486,19.5792012 Z" id="Combined-Shape" fill="#5B4D4C"></path>
    </g>
</svg>