<?xml version="1.0" encoding="UTF-8"?>
<svg width="66px" height="32px" viewBox="0 0 66 32" version="1.1" xmlns="http://www.w3.org/2000/svg" xmlns:xlink="http://www.w3.org/1999/xlink">
    <!-- Generator: Sketch 49 (51002) - http://www.bohemiancoding.com/sketch -->
    <title>g_point</title>
    <desc>Created with Sketch.</desc>
    <defs>
        <path d="M13.5,29 C20.4035594,29 26,23.4035594 26,16.5 C26,9.59644063 20.4035594,4 13.5,4 C6.59644063,4 1,9.59644063 1,16.5 C1,23.4035594 6.59644063,29 13.5,29 L13.5,29 Z M13.5,28 C7.14872538,28 2,22.8512746 2,16.5 C2,10.1487254 7.14872538,5 13.5,5 C19.8512746,5 25,10.1487254 25,16.5 C25,22.8512746 19.8512746,28 13.5,28 L13.5,28 Z M13.5,7.25 C14.1293045,7.25 14.750854,7.33036607 15.25,7.5 C16.3371957,7.86948162 17,8.5 17,8.5 C19,10 18,14 18,14 C18.1149791,14.1149791 18.1348552,14.1332 18.25,14.25 C18.4646795,14.4677655 18.4982818,14.7852077 18.5,15 C18.5053755,15.6719704 17.75,16.25 17.75,16.25 C17.75,18.75 16,20.75 16,20.75 C15.5,22.75 16.5,23.75 16.5,23.75 C16.5,23.75 19.6334442,24.5980718 21,25 C21,25 20.3391913,25.7149461 19.5,26.25 C18.9277262,26.6148719 17.9899147,27.0472767 17.5,27.25 C16.9458314,27.4793112 16.3538007,27.5531064 15.5556034,27.7341855 C14.6133765,27.9479392 13.5,28 13.5,28 C13.5,28 12.3866235,27.9479392 11.4443966,27.7341855 C10.6461993,27.5531064 10.0541686,27.4793112 9.5,27.25 C9.01008529,27.0472767 8.07227383,26.6148719 7.5,26.25 C6.66080868,25.7149461 6,25 6,25 C7.36655577,24.5980718 10.5,23.75 10.5,23.75 C10.5,23.75 11.5,22.75 11,20.75 C11,20.75 9.25,18.75 9.25,16.25 C9.25,16.25 8.49462454,15.6719704 8.5,15 C8.50171824,14.7852077 8.53532054,14.4677655 8.75,14.25 C8.86514481,14.1332 8.88502094,14.1149791 9,14 C9,14 8,10 10,8.5 C10,8.5 10.6628043,7.86948162 11.75,7.5 C12.249146,7.33036607 12.8706955,7.25 13.5,7.25 Z" id="path-1"></path>
        <filter x="-8.0%" y="-8.0%" width="116.0%" height="116.0%" filterUnits="objectBoundingBox" id="filter-2">
            <feGaussianBlur stdDeviation="1.5" in="SourceAlpha" result="shadowBlurInner1"></feGaussianBlur>
            <feOffset dx="0" dy="1" in="shadowBlurInner1" result="shadowOffsetInner1"></feOffset>
            <feComposite in="shadowOffsetInner1" in2="SourceAlpha" operator="arithmetic" k2="-1" k3="1" result="shadowInnerInner1"></feComposite>
            <feColorMatrix values="0 0 0 0 0   0 0 0 0 0   0 0 0 0 0  0 0 0 0.5 0" type="matrix" in="shadowInnerInner1"></feColorMatrix>
        </filter>
        <text id="text-3" font-family="HiraginoSans-W3, Hiragino Sans" font-size="10.8" font-weight="300" fill="#5B4D4C">
            <tspan x="33" y="21">看積分</tspan>
        </text>
        <filter x="-6.1%" y="-18.2%" width="112.1%" height="136.4%" filterUnits="objectBoundingBox" id="filter-4">
            <feGaussianBlur stdDeviation="1.5" in="SourceAlpha" result="shadowBlurInner1"></feGaussianBlur>
            <feOffset dx="0" dy="1" in="shadowBlurInner1" result="shadowOffsetInner1"></feOffset>
            <feComposite in="shadowOffsetInner1" in2="SourceAlpha" operator="arithmetic" k2="-1" k3="1" result="shadowInnerInner1"></feComposite>
            <feColorMatrix values="0 0 0 0 0   0 0 0 0 0   0 0 0 0 0  0 0 0 0.5 0" type="matrix" in="shadowInnerInner1"></feColorMatrix>
        </filter>
        <filter x="-6.1%" y="-18.2%" width="112.1%" height="136.4%" filterUnits="objectBoundingBox" id="filter-5">
            <feGaussianBlur stdDeviation="1.5" in="SourceAlpha" result="shadowBlurInner1"></feGaussianBlur>
            <feOffset dx="0" dy="1" in="shadowBlurInner1" result="shadowOffsetInner1"></feOffset>
            <feComposite in="shadowOffsetInner1" in2="SourceAlpha" operator="arithmetic" k2="-1" k3="1" result="shadowInnerInner1"></feComposite>
            <feColorMatrix values="0 0 0 0 0   0 0 0 0 0   0 0 0 0 0  0 0 0 0.5 0" type="matrix" in="shadowInnerInner1"></feColorMatrix>
        </filter>
    </defs>
    <g id="g_point" stroke="none" stroke-width="1" fill="none" fill-rule="evenodd">
        <g id="Account-Icon">
            <use fill="#5B4D4C" fill-rule="evenodd" xlink:href="#path-1"></use>
            <use fill="black" fill-opacity="1" filter="url(#filter-2)" xlink:href="#path-1"></use>
        </g>
        <g id="看積分" fill="#5B4D4C" fill-opacity="1">
            <use filter="url(#filter-4)" xlink:href="#text-3"></use>
            <use filter="url(#filter-5)" xlink:href="#text-3"></use>
        </g>
    </g>
</svg>