<?xml version="1.0" encoding="UTF-8"?>
<svg width="115px" height="50px" viewBox="0 0 115 50" version="1.1" xmlns="http://www.w3.org/2000/svg" xmlns:xlink="http://www.w3.org/1999/xlink">
    <!-- Generator: Sketch 49.3 (51167) - http://www.bohemiancoding.com/sketch -->
    <title>gogoro</title>
    <desc>Created with Sketch.</desc>
    <defs></defs>
    <g id="gogoro" stroke="none" stroke-width="1" fill="none" fill-rule="evenodd">
        <g transform="translate(15.000000, 13.000000)" fill="#323237">
            <path d="M56.8781095,18.220339 C52.7909275,18.220339 49.4776119,14.9004166 49.4776119,10.8050847 C49.4776119,6.70975291 52.7909275,3.38983051 56.8781095,3.38983051 C60.9652914,3.38983051 64.278607,6.70975291 64.278607,10.8050847 C64.278607,14.9004166 60.9652914,18.220339 56.8781095,18.220339 Z M56.8781095,15.6779661 C59.5639719,15.6779661 61.7412935,13.4963028 61.7412935,10.8050847 C61.7412935,8.11386669 59.5639719,5.93220339 56.8781095,5.93220339 C54.1922471,5.93220339 52.0149254,8.11386669 52.0149254,10.8050847 C52.0149254,13.4963028 54.1922471,15.6779661 56.8781095,15.6779661 Z" id="Combined-Shape"></path>
            <path d="M77.5995025,18.220339 C73.5123206,18.220339 70.199005,14.9004166 70.199005,10.8050847 C70.199005,6.70975291 73.5123206,3.38983051 77.5995025,3.38983051 C81.6866844,3.38983051 85,6.70975291 85,10.8050847 C85,14.9004166 81.6866844,18.220339 77.5995025,18.220339 Z M77.5995025,15.6779661 C80.2853649,15.6779661 82.4626866,13.4963028 82.4626866,10.8050847 C82.4626866,8.11386669 80.2853649,5.93220339 77.5995025,5.93220339 C74.9136401,5.93220339 72.7363184,8.11386669 72.7363184,10.8050847 C72.7363184,13.4963028 74.9136401,15.6779661 77.5995025,15.6779661 Z" id="Combined-Shape-Copy-2"></path>
            <path d="M23.8930348,18.220339 C19.8058529,18.220339 16.4925373,14.9004166 16.4925373,10.8050847 C16.4925373,6.70975291 19.8058529,3.38983051 23.8930348,3.38983051 C27.9802167,3.38983051 31.2935323,6.70975291 31.2935323,10.8050847 C31.2935323,14.9004166 27.9802167,18.220339 23.8930348,18.220339 Z M23.8930348,15.6779661 C26.5788972,15.6779661 28.7562189,13.4963028 28.7562189,10.8050847 C28.7562189,8.11386669 26.5788972,5.93220339 23.8930348,5.93220339 C21.2071724,5.93220339 19.0298507,8.11386669 19.0298507,10.8050847 C19.0298507,13.4963028 21.2071724,15.6779661 23.8930348,15.6779661 Z" id="Combined-Shape-Copy"></path>
            <path d="M47.7860697,10.8050847 L47.7860697,17.5847458 C47.7860697,21.6800776 44.4727541,25 40.3855721,25 C38.1931047,25 36.2233188,24.0446856 34.8681974,22.5268213 L36.5808616,20.6200666 C37.4719022,21.7399446 38.8450921,22.4576271 40.3855721,22.4576271 C43.0714345,22.4576271 45.2487562,20.2759638 45.2487562,17.5847458 L45.2487562,16.394593 C43.9481995,17.5316152 42.2471558,18.220339 40.3855721,18.220339 C36.2983902,18.220339 32.9850746,14.9004166 32.9850746,10.8050847 C32.9850746,6.70975291 36.2983902,3.38983051 40.3855721,3.38983051 C44.4727541,3.38983051 47.7860697,6.70975291 47.7860697,10.8050847 Z M40.3855721,15.6779661 C43.0714345,15.6779661 45.2487562,13.4963028 45.2487562,10.8050847 C45.2487562,8.11386669 43.0714345,5.93220339 40.3855721,5.93220339 C37.6997097,5.93220339 35.5223881,8.11386669 35.5223881,10.8050847 C35.5223881,13.4963028 37.6997097,15.6779661 40.3855721,15.6779661 Z" id="Combined-Shape"></path>
            <path d="M14.800995,10.8050847 L14.800995,17.5847458 C14.800995,21.6800776 11.4876794,25 7.40049751,25 C5.20803003,25 3.23824414,24.0446856 1.88312276,22.5268213 L3.59578697,20.6200666 C4.48682758,21.7399446 5.86001747,22.4576271 7.40049751,22.4576271 C10.0863599,22.4576271 12.2636816,20.2759638 12.2636816,17.5847458 L12.2636816,16.394593 C10.9631248,17.5316152 9.26208115,18.220339 7.40049751,18.220339 C3.3133156,18.220339 0,14.9004166 0,10.8050847 C0,6.70975291 3.3133156,3.38983051 7.40049751,3.38983051 C11.4876794,3.38983051 14.800995,6.70975291 14.800995,10.8050847 Z M7.40049751,15.6779661 C10.0863599,15.6779661 12.2636816,13.4963028 12.2636816,10.8050847 C12.2636816,8.11386669 10.0863599,5.93220339 7.40049751,5.93220339 C4.71463511,5.93220339 2.53731343,8.11386669 2.53731343,10.8050847 C2.53731343,13.4963028 4.71463511,15.6779661 7.40049751,15.6779661 Z" id="Combined-Shape-Copy-3"></path>
            <path d="M66.0156774,18.220339 C65.9855391,17.8789834 65.9701493,17.533392 65.9701493,17.1842061 L65.9701493,10.3581668 C65.9701493,6.10973369 68.2482755,2.39338549 71.649574,0.364076218 L73.2112835,2.39834683 C70.406881,3.94671754 68.5074627,6.93315543 68.5074627,10.3632262 L68.5074627,18.0266043 C68.5074627,18.0913428 68.5081393,18.1559232 68.5094858,18.220339 L66.0156774,18.220339 Z" id="Combined-Shape"></path>
        </g>
    </g>
</svg>