<?xml version="1.0" encoding="UTF-8"?>
<svg width="202px" height="59px" viewBox="0 0 202 59" version="1.1" xmlns="http://www.w3.org/2000/svg" xmlns:xlink="http://www.w3.org/1999/xlink">
    <!-- Generator: Sketch 49 (51002) - http://www.bohemiancoding.com/sketch -->
    <title>gogoro</title>
    <desc>Created with Sketch.</desc>
    <defs></defs>
    <g id="Page-1" stroke="none" stroke-width="1" fill="none" fill-rule="evenodd">
        <g id="iPhone-8-Copy-11" transform="translate(-83.000000, -524.000000)" fill="#FFFFFF">
            <g id="gogoro" transform="translate(83.000000, 524.000000)">
                <path d="M134.5,43 C124.835017,43 117,35.1649831 117,25.5 C117,15.8350169 124.835017,8 134.5,8 C144.164983,8 152,15.8350169 152,25.5 C152,35.1649831 144.164983,43 134.5,43 Z M134.5,37 C140.851275,37 146,31.8512746 146,25.5 C146,19.1487254 140.851275,14 134.5,14 C128.148725,14 123,19.1487254 123,25.5 C123,31.8512746 128.148725,37 134.5,37 Z" id="Combined-Shape"></path>
                <path d="M184.5,43 C174.835017,43 167,35.1649831 167,25.5 C167,15.8350169 174.835017,8 184.5,8 C194.164983,8 202,15.8350169 202,25.5 C202,35.1649831 194.164983,43 184.5,43 Z M184.5,37 C190.851275,37 196,31.8512746 196,25.5 C196,19.1487254 190.851275,14 184.5,14 C178.148725,14 173,19.1487254 173,25.5 C173,31.8512746 178.148725,37 184.5,37 Z" id="Combined-Shape-Copy-2"></path>
                <path d="M56.5,43 C46.8350169,43 39,35.1649831 39,25.5 C39,15.8350169 46.8350169,8 56.5,8 C66.1649831,8 74,15.8350169 74,25.5 C74,35.1649831 66.1649831,43 56.5,43 Z M56.5,37 C62.8512746,37 68,31.8512746 68,25.5 C68,19.1487254 62.8512746,14 56.5,14 C50.1487254,14 45,19.1487254 45,25.5 C45,31.8512746 50.1487254,37 56.5,37 Z" id="Combined-Shape-Copy"></path>
                <path d="M113,25.5 L113,41.5 C113,51.1649831 105.164983,59 95.5,59 C90.3154592,59 85.657495,56.745458 82.4530315,53.1632984 L86.5029786,48.6633571 C88.6100276,51.3062693 91.8572178,53 95.5,53 C101.851275,53 107,47.8512746 107,41.5 L107,38.6912394 C103.924566,41.3746118 99.9020978,43 95.5,43 C85.8350169,43 78,35.1649831 78,25.5 C78,15.8350169 85.8350169,8 95.5,8 C105.164983,8 113,15.8350169 113,25.5 Z M95.5,37 C101.851275,37 107,31.8512746 107,25.5 C107,19.1487254 101.851275,14 95.5,14 C89.1487254,14 84,19.1487254 84,25.5 C84,31.8512746 89.1487254,37 95.5,37 Z" id="Combined-Shape"></path>
                <path d="M35,25.5 L35,41.5 C35,51.1649831 27.1649831,59 17.5,59 C12.3154592,59 7.65749497,56.745458 4.45303146,53.1632984 L8.50297859,48.6633571 C10.6100276,51.3062693 13.8572178,53 17.5,53 C23.8512746,53 29,47.8512746 29,41.5 L29,38.6912394 C25.9245658,41.3746118 21.9020978,43 17.5,43 C7.83501688,43 0,35.1649831 0,25.5 C0,15.8350169 7.83501688,8 17.5,8 C27.1649831,8 35,15.8350169 35,25.5 Z M17.5,37 C23.8512746,37 29,31.8512746 29,25.5 C29,19.1487254 23.8512746,14 17.5,14 C11.1487254,14 6,19.1487254 6,25.5 C6,31.8512746 11.1487254,37 17.5,37 Z" id="Combined-Shape-Copy-3"></path>
                <path d="M156.112108,43 C156.037907,42.1765949 156,41.3427242 156,40.5 L156,24.5 C156,14.4520159 161.38891,5.66267935 169.434227,0.864494801 L173.126017,5.66382178 C166.492859,9.32481095 162,16.3877238 162,24.5 L162,42.5 C162,42.6671189 162.001907,42.8337924 162.0057,43 L156.112108,43 Z" id="Combined-Shape"></path>
            </g>
        </g>
    </g>
</svg>