<?xml version="1.0" encoding="UTF-8"?>
<svg width="73px" height="69px" viewBox="0 0 73 69" version="1.1" xmlns="http://www.w3.org/2000/svg" xmlns:xlink="http://www.w3.org/1999/xlink">
    <!-- Generator: Sketch 49.3 (51167) - http://www.bohemiancoding.com/sketch -->
    <title>Lv</title>
    <desc>Created with Sketch.</desc>
    <defs></defs>
    <g id="Lv" stroke="none" stroke-width="1" fill="none" fill-rule="evenodd">
        <path d="M15.9714949,22.0803673 L15.9714949,51.8538367 C15.9714949,52.8959082 16.4677194,53.3921327 17.4601684,53.3921327 L35.0265153,53.3921327 C36.763301,53.3921327 37.6068827,54.2357143 37.6068827,55.7740102 C37.6068827,57.2626837 36.763301,58.1062653 35.0265153,58.1062653 L16.5669643,58.1062653 C11.9024541,58.1062653 10.3641582,56.5679694 10.3641582,52.3996837 L10.3641582,22.0803673 C10.3641582,20.3932041 11.3069847,19.5 13.1430153,19.5 C15.0782908,19.5 15.9714949,20.3932041 15.9714949,22.0803673 Z M47.5809949,56.1709898 L39.0459337,35.2799388 C38.9466888,34.9822041 38.8474439,34.7340918 38.8474439,34.4859796 C38.8474439,33.2454184 40.1376276,32.3025918 41.7751684,32.3025918 C42.7676173,32.3025918 43.4623316,32.8484388 43.8096888,33.7912653 L49.1192908,48.231398 C49.6155153,49.5712041 50.2606071,52.101949 50.7568316,53.7394898 C51.3026786,52.101949 52.0470153,49.5712041 52.5432398,48.231398 L57.9520867,33.6920204 C58.2994439,32.7491939 59.0437806,32.3025918 59.9866071,32.3025918 C61.6737704,32.3025918 62.7158418,33.3446633 62.7158418,34.4363571 C62.7158418,34.6844694 62.6165969,34.9822041 62.517352,35.2799388 L53.9326684,56.1709898 C53.337199,57.6596633 52.3943724,58.404 50.7072092,58.404 C49.1192908,58.404 48.1764643,57.6596633 47.5809949,56.1709898 Z" fill="#989898"></path>
    </g>
</svg>