<?xml version="1.0" encoding="UTF-8"?>
<svg width="73px" height="69px" viewBox="0 0 73 69" version="1.1" xmlns="http://www.w3.org/2000/svg" xmlns:xlink="http://www.w3.org/1999/xlink">
    <!-- Generator: Sketch 49.3 (51167) - http://www.bohemiancoding.com/sketch -->
    <title>Lv</title>
    <desc>Created with Sketch.</desc>
    <defs></defs>
    <g id="Lv" stroke="none" stroke-width="1" fill="none" fill-rule="evenodd">
        <path d="M13.328,15.912 L13.328,49.512 C13.328,50.688 13.888,51.248 15.008,51.248 L34.832,51.248 C36.792,51.248 37.744,52.2 37.744,53.936 C37.744,55.616 36.792,56.568 34.832,56.568 L14,56.568 C8.736,56.568 7,54.832 7,50.128 L7,15.912 C7,14.008 8.064,13 10.136,13 C12.32,13 13.328,14.008 13.328,15.912 Z M49,54.384 L39.368,30.808 C39.256,30.472 39.144,30.192 39.144,29.912 C39.144,28.512 40.6,27.448 42.448,27.448 C43.568,27.448 44.352,28.064 44.744,29.128 L50.736,45.424 C51.296,46.936 52.024,49.792 52.584,51.64 C53.2,49.792 54.04,46.936 54.6,45.424 L60.704,29.016 C61.096,27.952 61.936,27.448 63,27.448 C64.904,27.448 66.08,28.624 66.08,29.856 C66.08,30.136 65.968,30.472 65.856,30.808 L56.168,54.384 C55.496,56.064 54.432,56.904 52.528,56.904 C50.736,56.904 49.672,56.064 49,54.384 Z" fill="#989898"></path>
    </g>
</svg>