<?xml version="1.0" encoding="UTF-8"?>
<svg width="62px" height="65px" viewBox="0 0 62 65" version="1.1" xmlns="http://www.w3.org/2000/svg" xmlns:xlink="http://www.w3.org/1999/xlink">
    <!-- Generator: Sketch 49.3 (51167) - http://www.bohemiancoding.com/sketch -->
    <title>trophy</title>
    <desc>Created with Sketch.</desc>
    <defs>
        <rect id="path-1" x="25.0877193" y="42.1929825" width="11.4035088" height="17.1052632" rx="3.2"></rect>
        <path d="M46.754386,65 L14.8245614,65 L14.8245614,58.0311891 C14.8245614,54.9521747 16.4820071,52.4561404 18.52657,52.4561404 L43.0523773,52.4561404 C45.0969402,52.4561404 46.754386,54.9521747 46.754386,58.0311891 L46.754386,65 Z" id="path-2"></path>
        <path d="M61.5789474,24.6143661 C61.5789474,31.1737758 47.7940305,36.4912281 30.7894737,36.4912281 C13.7849169,36.4912281 0,31.1737758 0,24.6143661 L0,12.2211188 C0,10.5099685 3.48250533,9.12280702 7.77839335,9.12280702 L53.800554,9.12280702 C58.096442,9.12280702 61.5789474,10.5099685 61.5789474,12.2211188 L61.5789474,24.6143661 Z" id="path-3"></path>
        <path d="M52.4561404,27.1102284 C52.4561404,38.5891954 42.7556433,47.8947368 30.7894737,47.8947368 C18.8233041,47.8947368 9.12280702,38.5891954 9.12280702,27.1102284 L9.12280702,5.42204568 C9.12280702,2.42753254 11.5734589,0 14.5964912,0 L46.9824561,0 C50.0054885,0 52.4561404,2.42753254 52.4561404,5.42204568 L52.4561404,27.1102284 Z" id="path-4"></path>
    </defs>
    <g id="Page-1" stroke="none" stroke-width="1" fill="none" fill-rule="evenodd">
        <g id="iPhone-8" transform="translate(-87.000000, -189.000000)">
            <g id="trophy" transform="translate(87.000000, 189.000000)">
                <g id="Rectangle-3-Copy-2">
                    <use fill="#FFFFFF" fill-rule="evenodd" xlink:href="#path-1"></use>
                    <rect stroke="#979797" stroke-width="3" x="26.5877193" y="43.6929825" width="8.40350877" height="14.1052632" rx="3.2"></rect>
                </g>
                <g id="Combined-Shape">
                    <use fill="#FFFFFF" fill-rule="evenodd" xlink:href="#path-2"></use>
                    <path stroke="#979797" stroke-width="3" d="M45.254386,63.5 L45.254386,58.0311891 C45.254386,55.6822207 44.108214,53.9561404 43.0523773,53.9561404 L18.52657,53.9561404 C17.4707333,53.9561404 16.3245614,55.6822207 16.3245614,58.0311891 L16.3245614,63.5 L45.254386,63.5 Z"></path>
                </g>
                <g id="Combined-Shape">
                    <use fill="#FFFFFF" fill-rule="evenodd" xlink:href="#path-3"></use>
                    <path stroke="#979797" stroke-width="3" d="M60.0789474,24.6143661 L60.0789474,12.2211188 C60.0789474,12.256093 60.0615498,12.2222278 59.9393088,12.1071083 C59.700673,11.8823753 59.2920312,11.6414419 58.745638,11.423801 C57.4847534,10.9215619 55.7114788,10.622807 53.800554,10.622807 L7.77839335,10.622807 C5.86746857,10.622807 4.09419394,10.9215619 2.83330932,11.423801 C2.28691621,11.6414419 1.87827433,11.8823753 1.6396386,12.1071083 C1.51739753,12.2222278 1.5,12.256093 1.5,12.2211188 L1.5,24.6143661 C1.5,29.9551878 14.555387,34.9912281 30.7894737,34.9912281 C47.0235603,34.9912281 60.0789474,29.9551878 60.0789474,24.6143661 Z"></path>
                </g>
                <g id="Combined-Shape">
                    <use fill="#FFFFFF" fill-rule="evenodd" xlink:href="#path-4"></use>
                    <path stroke="#979797" stroke-width="3" d="M50.9561404,27.1102284 L50.9561404,5.42204568 C50.9561404,3.25915907 49.1802274,1.5 46.9824561,1.5 L14.5964912,1.5 C12.39872,1.5 10.622807,3.25915907 10.622807,5.42204568 L10.622807,27.1102284 C10.622807,37.7464986 19.638103,46.3947368 30.7894737,46.3947368 C41.9408444,46.3947368 50.9561404,37.7464986 50.9561404,27.1102284 Z"></path>
                </g>
            </g>
        </g>
    </g>
</svg>