<?xml version="1.0" encoding="UTF-8"?>
<svg width="30px" height="30px" viewBox="0 0 30 30" version="1.1" xmlns="http://www.w3.org/2000/svg" xmlns:xlink="http://www.w3.org/1999/xlink">
    <!-- Generator: Sketch 49 (51002) - http://www.bohemiancoding.com/sketch -->
    <title>Group</title>
    <desc>Created with Sketch.</desc>
    <defs>
        <linearGradient x1="45.1915178%" y1="57.5295511%" x2="96.8017434%" y2="-8.84818988%" id="linearGradient-1">
            <stop stop-color="#B0AEAE" offset="0%"></stop>
            <stop stop-color="#000000" offset="100%"></stop>
        </linearGradient>
        <linearGradient x1="81.6297226%" y1="23.7344858%" x2="6.73366909%" y2="99.7655491%" id="linearGradient-2">
            <stop stop-color="#EEEEEE" offset="0%"></stop>
            <stop stop-color="#151313" offset="100%"></stop>
        </linearGradient>
        <linearGradient x1="-25.9089542%" y1="137.191264%" x2="100%" y2="0%" id="linearGradient-3">
            <stop stop-color="#FFFFFF" offset="0%"></stop>
            <stop stop-color="#000000" offset="100%"></stop>
        </linearGradient>
    </defs>
    <g id="Page-1" stroke="none" stroke-width="1" fill="none" fill-rule="evenodd">
        <g id="user#show" transform="translate(-318.000000, -80.000000)">
            <g id="Group" transform="translate(319.000000, 81.000000)">
                <circle id="Oval" stroke="#979797" stroke-width="0.55" fill="url(#linearGradient-1)" cx="14" cy="14" r="14"></circle>
                <circle id="Oval-Copy" fill="url(#linearGradient-2)" cx="14" cy="14" r="11.3393665"></circle>
                <path d="M10.959276,10.6334125 C10.959276,10.4552834 10.9741814,10.3110858 11.0039925,10.2008154 C11.0338037,10.090545 11.0912958,10.0057229 11.1764706,9.94634649 C11.2616454,9.88697012 11.3830176,9.84667962 11.5405909,9.82547377 C11.6981642,9.80426792 11.9047099,9.79366516 12.1602342,9.79366516 L13.9616715,9.79366516 C14.523825,9.79366516 14.9986672,9.84031732 15.3862124,9.93362305 C15.7737576,10.0269288 16.0910288,10.1838497 16.3380357,10.4043905 C16.5850425,10.6249313 16.7639068,10.915447 16.874634,11.2759464 C16.9853612,11.6364458 17.040724,12.0796414 17.040724,12.6055463 C17.040724,13.1314513 16.9811025,13.5810085 16.8618579,13.9542314 C16.7426132,14.3274543 16.5594902,14.6328139 16.3124834,14.8703194 C16.0654765,15.1078249 15.7482053,15.2817102 15.3606601,15.3919806 C14.9731149,15.502251 14.5067901,15.5573854 13.9616715,15.5573854 L12.6201757,15.5573854 L12.6201757,18.1275212 C12.6201757,18.2971679 12.5562956,18.4498477 12.4285334,18.5855652 C12.3007713,18.7212826 12.0878375,18.7891403 11.7897258,18.7891403 C11.4916142,18.7891403 11.2786804,18.7170415 11.1509183,18.5728417 C11.0231561,18.428642 10.959276,18.2802033 10.959276,18.1275212 L10.959276,10.6334125 Z M12.6201757,14.1323597 L13.9616715,14.1323597 C14.5067901,14.1323597 14.8794241,14.0136087 15.0795848,13.7761032 C15.2797455,13.5385977 15.3798243,13.1526571 15.3798243,12.6182698 C15.3798243,12.3383526 15.3436256,12.1093329 15.271227,11.9312038 C15.1988285,11.7530747 15.0987496,11.6109976 14.9709875,11.5049684 C14.8432253,11.3989392 14.6941717,11.3268404 14.5238222,11.2886699 C14.3534727,11.2504993 14.166091,11.2314144 13.9616715,11.2314144 L12.6201757,11.2314144 L12.6201757,14.1323597 Z" id="P" fill="url(#linearGradient-3)"></path>
            </g>
        </g>
    </g>
</svg>