<?xml version="1.0" encoding="UTF-8"?>
<svg width="73px" height="69px" viewBox="0 0 73 69" version="1.1" xmlns="http://www.w3.org/2000/svg" xmlns:xlink="http://www.w3.org/1999/xlink">
    <!-- Generator: Sketch 49.3 (51167) - http://www.bohemiancoding.com/sketch -->
    <title>pig</title>
    <desc>Created with Sketch.</desc>
    <defs></defs>
    <g id="pig" stroke="none" stroke-width="1" fill="none" fill-rule="evenodd">
        <g transform="translate(2.000000, 2.000000)">
            <path d="M52.9014609,13.4619428 C56.334944,16.0508175 59.0625258,19.283454 60.8131106,22.9328361 L66,22.9328361 C67.6568542,22.9328361 69,24.2759818 69,25.9328361 L69,38.9632198 C69,40.620074 67.6568542,41.9632198 66,41.9632198 L60.8131106,41.9632198 C58.1506943,47.5134647 53.2284319,52.099755 47,54.9234795 L47,62 C47,63.6568542 45.6568542,65 44,65 L38,65 C36.3431458,65 35,63.6568542 35,62 L35,57.9042393 C34.1755012,57.9602526 33.3417326,57.988806 32.5,57.988806 C30.2692991,57.988806 28.0945305,57.7882698 26,57.4075512 L26,62 C26,63.6568542 24.6568542,65 23,65 L17,65 C15.3431458,65 14,63.6568542 14,62 L14,52.7556448 C6.70574373,48.0887992 2,40.728602 2,32.4480279 C2,18.3422457 15.6553151,6.90724984 32.5,6.90724984 C36.7658058,6.90724984 40.8270702,7.64060169 44.5138151,8.96496527 L53.5367066,3 L52.9014609,13.4619428 Z" id="Combined-Shape" fill="#FFD8D8"></path>
            <ellipse id="Oval-2" fill="#979797" cx="48.5" cy="23.7924275" rx="2.5" ry="2.50399785"></ellipse>
            <ellipse id="Oval-3" fill="#F9F4AE" cx="18.5" cy="18" rx="18.5" ry="18"></ellipse>
            <path d="M20.16,29.024 L17.232,29.024 L17.304,25.88 C14.688,25.616 13.2,24.44 12.528,23.84 L14.52,21.152 C15.24,21.824 16.8,22.928 18.744,22.928 C20.112,22.928 20.784,22.304 20.784,21.44 C20.784,20.48 20.016,20.072 18.168,19.232 L16.728,18.584 C14.232,17.48 13.2,15.992 13.2,14.072 C13.2,11.48 15.12,9.752 17.616,9.296 L17.52,6.224 L20.448,6.224 L20.376,9.296 C22.68,9.68 23.76,10.88 23.952,11.144 L21.864,13.616 C21.168,12.92 20.088,12.248 18.744,12.248 C17.496,12.248 16.848,12.896 16.848,13.784 C16.848,14.768 17.736,15.296 19.248,15.992 L20.424,16.52 C23.16,17.768 24.408,18.776 24.408,21.056 C24.408,23.216 22.968,25.208 20.088,25.76 L20.16,29.024 Z" id="$" fill="#979797"></path>
        </g>
    </g>
</svg>