<?xml version="1.0" encoding="UTF-8"?>
<svg width="28px" height="32px" viewBox="0 0 28 32" version="1.1" xmlns="http://www.w3.org/2000/svg" xmlns:xlink="http://www.w3.org/1999/xlink">
    <!-- Generator: Sketch 49.3 (51167) - http://www.bohemiancoding.com/sketch -->
    <title>play</title>
    <desc>Created with Sketch.</desc>
    <defs></defs>
    <g id="play" stroke="none" stroke-width="1" fill="none" fill-rule="evenodd">
        <path d="M4.19163311,15.7737332 L3.15619205,15.7737332 C2.6322119,15.7737332 2.20744205,16.198503 2.20744205,16.7224832 L2.20744205,16.7660256 C2.20744205,17.2900058 2.6322119,17.7147756 3.15619205,17.7147756 L4.19163311,17.7147756 L4.19163311,18.7502167 C4.19163311,19.2741969 4.61640296,19.6989667 5.14038311,19.6989667 L5.18392557,19.6989667 C5.70790573,19.6989667 6.13267557,19.2741969 6.13267557,18.7502167 L6.13267557,17.7147756 L7.16811663,17.7147756 C7.69209679,17.7147756 8.11686663,17.2900058 8.11686663,16.7660256 L8.11686663,16.7224832 C8.11686663,16.198503 7.69209679,15.7737332 7.16811663,15.7737332 L6.13267557,15.7737332 L6.13267557,14.7382921 C6.13267557,14.214312 5.70790573,13.7895421 5.18392557,13.7895421 L5.14038311,13.7895421 C4.61640296,13.7895421 4.19163311,14.214312 4.19163311,14.7382921 L4.19163311,15.7737332 Z M6.76614102,7.30372973 C10.6494772,8.36248016 9.46759225,10.479981 13.6886098,10.479981 C17.9096274,10.479981 17.162209,8.47760456 20.7799193,7.12727133 C23.1436891,6.2449793 25.507459,10.1270642 26.5205032,13.3033155 C27.5335474,16.4795668 28.7154323,23.0085278 25.3386183,24.7731119 C21.9618042,26.5376959 20.5266583,19.6558181 13.6886098,19.6558181 C6.85056137,19.6558181 5.7530968,26.5376959 2.03860135,24.5966535 C-1.6758941,22.655611 0.610491989,13.8519878 1.70091995,11.7151899 C2.7913479,9.57839196 4.03420776,6.55889709 6.76614102,7.30372973 Z M23.3125298,16.3031084 C24.058515,16.3031084 24.6632555,15.6710835 24.6632555,14.8914412 C24.6632555,14.1117989 24.058515,13.4797739 23.3125298,13.4797739 C22.5665447,13.4797739 21.9618042,14.1117989 21.9618042,14.8914412 C21.9618042,15.6710835 22.5665447,16.3031084 23.3125298,16.3031084 Z M20.94876,19.3029013 C21.6947452,19.3029013 22.2994856,18.6708763 22.2994856,17.8912341 C22.2994856,17.1115918 21.6947452,16.4795668 20.94876,16.4795668 C20.2027748,16.4795668 19.5980344,17.1115918 19.5980344,17.8912341 C19.5980344,18.6708763 20.2027748,19.3029013 20.94876,19.3029013 Z" id="Combined-Shape" fill="#112F3B"></path>
    </g>
</svg>