<?xml version="1.0" encoding="UTF-8"?>
<svg width="28px" height="32px" viewBox="0 0 28 32" version="1.1" xmlns="http://www.w3.org/2000/svg" xmlns:xlink="http://www.w3.org/1999/xlink">
    <!-- Generator: Sketch 49.3 (51167) - http://www.bohemiancoding.com/sketch -->
    <title>point</title>
    <desc>Created with Sketch.</desc>
    <defs></defs>
    <g id="point" stroke="none" stroke-width="1" fill="none" fill-rule="evenodd">
        <path d="M14.5,29 C21.4035594,29 27,23.4035594 27,16.5 C27,9.59644063 21.4035594,4 14.5,4 C7.59644063,4 2,9.59644063 2,16.5 C2,23.4035594 7.59644063,29 14.5,29 L14.5,29 Z M14.5,28 C8.14872538,28 3,22.8512746 3,16.5 C3,10.1487254 8.14872538,5 14.5,5 C20.8512746,5 26,10.1487254 26,16.5 C26,22.8512746 20.8512746,28 14.5,28 L14.5,28 Z M14.5,7.25 C15.1293045,7.25 15.750854,7.33036607 16.25,7.5 C17.3371957,7.86948162 18,8.5 18,8.5 C20,10 19,14 19,14 C19.1149791,14.1149791 19.1348552,14.1332 19.25,14.25 C19.4646795,14.4677655 19.4982818,14.7852077 19.5,15 C19.5053755,15.6719704 18.75,16.25 18.75,16.25 C18.75,18.75 17,20.75 17,20.75 C16.5,22.75 17.5,23.75 17.5,23.75 C17.5,23.75 20.6334442,24.5980718 22,25 C22,25 21.3391913,25.7149461 20.5,26.25 C19.9277262,26.6148719 18.9899147,27.0472767 18.5,27.25 C17.9458314,27.4793112 17.3538007,27.5531064 16.5556034,27.7341855 C15.6133765,27.9479392 14.5,28 14.5,28 C14.5,28 13.3866235,27.9479392 12.4443966,27.7341855 C11.6461993,27.5531064 11.0541686,27.4793112 10.5,27.25 C10.0100853,27.0472767 9.07227383,26.6148719 8.5,26.25 C7.66080868,25.7149461 7,25 7,25 C8.36655577,24.5980718 11.5,23.75 11.5,23.75 C11.5,23.75 12.5,22.75 12,20.75 C12,20.75 10.25,18.75 10.25,16.25 C10.25,16.25 9.49462454,15.6719704 9.5,15 C9.50171824,14.7852077 9.53532054,14.4677655 9.75,14.25 C9.86514481,14.1332 9.88502094,14.1149791 10,14 C10,14 9,10 11,8.5 C11,8.5 11.6628043,7.86948162 12.75,7.5 C13.249146,7.33036607 13.8706955,7.25 14.5,7.25 Z" id="Account-Icon" fill="#80ADD7"></path>
    </g>
</svg>