<?xml version="1.0" encoding="UTF-8"?>
<svg width="28px" height="32px" viewBox="0 0 28 32" version="1.1" xmlns="http://www.w3.org/2000/svg" xmlns:xlink="http://www.w3.org/1999/xlink">
    <!-- Generator: Sketch 49.3 (51167) - http://www.bohemiancoding.com/sketch -->
    <title>shop</title>
    <desc>Created with Sketch.</desc>
    <defs></defs>
    <g id="shop" stroke="none" stroke-width="1" fill="none" fill-rule="evenodd">
        <path d="M8.5793224,8.04347826 C9.1361467,4.01202031 11.351669,1 14,1 C16.648331,1 18.8638533,4.01202031 19.4206776,8.04347826 L21.7777778,8.04347826 C23.0050772,8.04347826 24,9.0946358 24,10.3913043 L24,25.6521739 C24,26.9488425 23.0050772,28 21.7777778,28 L6.22222222,28 C4.99492278,28 4,26.9488425 4,25.6521739 L4,10.3913043 C4,9.0946358 4.99492278,8.04347826 6.22222222,8.04347826 L8.5793224,8.04347826 Z M9.18905599,8.04347826 L18.810944,8.04347826 C18.3039765,4.42173431 16.3424536,1.72240803 14,1.72240803 C11.6575464,1.72240803 9.69602347,4.42173431 9.18905599,8.04347826 Z" id="Combined-Shape" fill="#112F3B"></path>
    </g>
</svg>