<?xml version="1.0" encoding="UTF-8"?>
<svg width="28px" height="32px" viewBox="0 0 28 32" version="1.1" xmlns="http://www.w3.org/2000/svg" xmlns:xlink="http://www.w3.org/1999/xlink">
    <!-- Generator: Sketch 49.3 (51167) - http://www.bohemiancoding.com/sketch -->
    <title>shop</title>
    <desc>Created with Sketch.</desc>
    <defs></defs>
    <g id="shop" stroke="none" stroke-width="1" fill="none" fill-rule="evenodd">
        <g id="Group-2" transform="translate(4.000000, 1.000000)" fill="#80ADD7">
            <path d="M4.5793224,7.04347826 C5.1361467,3.01202031 7.35166901,0 10,0 C12.648331,0 14.8638533,3.01202031 15.4206776,7.04347826 L17.7777778,7.04347826 C19.0050772,7.04347826 20,8.0946358 20,9.39130435 L20,24.6521739 C20,25.9488425 19.0050772,27 17.7777778,27 L2.22222222,27 C0.994922778,27 1.50300834e-16,25.9488425 0,24.6521739 L0,9.39130435 C-1.50300834e-16,8.0946358 0.994922778,7.04347826 2.22222222,7.04347826 L4.5793224,7.04347826 Z M5.18905599,7.04347826 L14.810944,7.04347826 C14.3039765,3.42173431 12.3424536,0.722408027 10,0.722408027 C7.65754639,0.722408027 5.69602347,3.42173431 5.18905599,7.04347826 Z" id="Combined-Shape"></path>
        </g>
    </g>
</svg>