<?xml version="1.0" encoding="UTF-8"?>
<svg width="208px" height="102px" viewBox="0 0 208 102" version="1.1" xmlns="http://www.w3.org/2000/svg" xmlns:xlink="http://www.w3.org/1999/xlink">
    <!-- Generator: Sketch 49.3 (51167) - http://www.bohemiancoding.com/sketch -->
    <title>go_play</title>
    <desc>Created with Sketch.</desc>
    <defs></defs>
    <g id="Page-1" stroke="none" stroke-width="1" fill="none" fill-rule="evenodd">
        <g id="login_page" transform="translate(-94.000000, -75.000000)" fill="#FFFFFF">
            <g id="go_play" transform="translate(94.000000, 75.000000)">
                <text id="帶你出去玩" font-family="HiraginoSansGB-W6, Hiragino Sans GB" font-size="24" font-weight="500">
                    <tspan x="44" y="99">帶你出去玩</tspan>
                </text>
                <g id="gogoro">
                    <path d="M139.18408,44.3171171 C129.182505,44.3171171 121.074627,36.2421087 121.074627,26.2810811 C121.074627,16.3200534 129.182505,8.24504505 139.18408,8.24504505 C149.185654,8.24504505 157.293532,16.3200534 157.293532,26.2810811 C157.293532,36.2421087 149.185654,44.3171171 139.18408,44.3171171 Z M139.18408,38.1333333 C145.756543,38.1333333 151.084577,32.8268993 151.084577,26.2810811 C151.084577,19.7352629 145.756543,14.4288288 139.18408,14.4288288 C132.611616,14.4288288 127.283582,19.7352629 127.283582,26.2810811 C127.283582,32.8268993 132.611616,38.1333333 139.18408,38.1333333 Z" id="Combined-Shape"></path>
                    <path d="M189.890547,44.3171171 C179.888973,44.3171171 171.781095,36.2421087 171.781095,26.2810811 C171.781095,16.3200534 179.888973,8.24504505 189.890547,8.24504505 C199.892122,8.24504505 208,16.3200534 208,26.2810811 C208,36.2421087 199.892122,44.3171171 189.890547,44.3171171 Z M189.890547,38.1333333 C196.463011,38.1333333 201.791045,32.8268993 201.791045,26.2810811 C201.791045,19.7352629 196.463011,14.4288288 189.890547,14.4288288 C183.318084,14.4288288 177.99005,19.7352629 177.99005,26.2810811 C177.99005,32.8268993 183.318084,38.1333333 189.890547,38.1333333 Z" id="Combined-Shape-Copy-2"></path>
                    <path d="M58.1094527,44.0720721 C48.1078782,44.0720721 40,35.9970637 40,26.036036 C40,16.0750084 48.1078782,8 58.1094527,8 C68.1110273,8 76.2189055,16.0750084 76.2189055,26.036036 C76.2189055,35.9970637 68.1110273,44.0720721 58.1094527,44.0720721 Z M58.1094527,37.8882883 C64.681916,37.8882883 70.0099502,32.5818542 70.0099502,26.036036 C70.0099502,19.4902179 64.681916,14.1837838 58.1094527,14.1837838 C51.5369894,14.1837838 46.2089552,19.4902179 46.2089552,26.036036 C46.2089552,32.5818542 51.5369894,37.8882883 58.1094527,37.8882883 Z" id="Combined-Shape-Copy"></path>
                    <path d="M116.928172,25.7692592 L116.940643,25.7657658 C116.957293,26.0803634 116.965722,26.3970938 116.965722,26.7157544 L116.965722,43.2058445 C116.965722,53.1668721 108.729802,61.2418805 98.5702793,61.2418805 C93.1204551,61.2418805 88.2241514,58.9182805 84.8557214,55.226397 L89.1128969,50.5886197 C91.3277597,53.312486 94.7411026,55.0580967 98.5702793,55.0580967 C105.246537,55.0580967 110.658713,49.7516626 110.658713,43.2058445 L110.658713,39.9348762 C107.484945,42.6655478 103.349065,44.3171171 98.8258706,44.3171171 C88.8242961,44.3171171 80.7164179,36.2421087 80.7164179,26.2810811 C80.7164179,16.3200534 88.8242961,8.24504505 98.8258706,8.24504505 C108.655574,8.24504505 116.656105,16.044909 116.928172,25.7692592 Z M110.66164,27.5247156 C110.704433,27.1159896 110.726368,26.7010866 110.726368,26.2810811 C110.726368,19.7352629 105.398334,14.4288288 98.8258706,14.4288288 C92.2534074,14.4288288 86.9253731,19.7352629 86.9253731,26.2810811 C86.9253731,32.8268993 92.2534074,38.1333333 98.8258706,38.1333333 C104.967108,38.1333333 110.021856,33.5003773 110.658713,27.55236 L110.658713,27.5255356 L110.66164,27.5247156 Z" id="Combined-Shape"></path>
                    <path d="M36.2107918,26.8262108 L36.2107918,43.2058445 C36.2107918,53.1668721 28.1029136,61.2418805 18.1013391,61.2418805 C12.7362421,61.2418805 7.91606022,58.9182805 4.59999847,55.226397 L8.79098854,50.5886197 C10.9714173,53.312486 14.3316938,55.0580967 18.1013391,55.0580967 C24.6738023,55.0580967 30.0018366,49.7516626 30.0018366,43.2058445 L30.0018366,39.8834229 C26.8203381,42.6447875 22.6609872,44.3171171 18.1094527,44.3171171 C8.10787816,44.3171171 0,36.2421087 0,26.2810811 C0,16.3200534 8.10787816,8.24504505 18.1094527,8.24504505 C28.1110273,8.24504505 36.2189055,16.3200534 36.2189055,26.2810811 C36.2189055,26.4634357 36.2161882,26.6451583 36.2107918,26.8262108 Z M18.1094527,38.1333333 C24.681916,38.1333333 30.0099502,32.8268993 30.0099502,26.2810811 C30.0099502,19.7352629 24.681916,14.4288288 18.1094527,14.4288288 C11.5369894,14.4288288 6.20895522,19.7352629 6.20895522,26.2810811 C6.20895522,32.8268993 11.5369894,38.1333333 18.1094527,38.1333333 Z" id="Combined-Shape-Copy-3"></path>
                    <path d="M161.558494,44.3171171 C161.475349,43.4309862 161.432836,42.5330436 161.432836,41.6251714 L161.432836,25.3658196 C161.432836,14.9643367 167.013249,5.86622905 175.343495,0.902075849 L179.161333,5.84514438 C172.293851,9.63267406 167.641791,16.9433877 167.641791,25.3406481 L167.641791,43.7116041 C167.641791,43.9140849 167.644496,44.115934 167.649871,44.3171171 L161.558494,44.3171171 Z" id="Combined-Shape"></path>
                </g>
            </g>
        </g>
    </g>
</svg>