<?xml version="1.0" encoding="UTF-8"?>
<svg width="768px" height="1024px" viewBox="0 0 768 1024" version="1.1" xmlns="http://www.w3.org/2000/svg" xmlns:xlink="http://www.w3.org/1999/xlink">
    <!-- Generator: Sketch 49.3 (51167) - http://www.bohemiancoding.com/sketch -->
    <title>iPad</title>
    <desc>Created with Sketch.</desc>
    <defs>
        <linearGradient x1="50%" y1="100%" x2="50%" y2="0%" id="linearGradient-1">
            <stop stop-color="#FFFFFF" offset="0%"></stop>
            <stop stop-color="#FFFFFF" offset="29.4639632%"></stop>
            <stop stop-color="#53C0F0" offset="100%"></stop>
        </linearGradient>
        <rect id="path-2" x="62.5227273" y="0" width="5.95454545" height="21.8004866" rx="0.786490765"></rect>
        <polygon id="path-3" points="53.5909091 19.4647202 76.6647727 19.4647202 75.3043121 48.2725061 54.9513697 48.2725061"></polygon>
        <rect id="path-4" x="42.4261364" y="44.379562" width="46.8920455" height="21.8004866"></rect>
        <polygon id="path-5" points="29.0284091 59.1727494 103.460227 59.1727494 95.9479557 103.552311 36.5406806 103.552311"></polygon>
        <polygon id="path-6" points="29.0284091 97.323601 103.460227 97.323601 95.9479557 141.703163 36.5406806 141.703163"></polygon>
        <polygon id="path-7" points="29.0284091 137.810219 103.460227 137.810219 95.9479557 182.189781 36.5406806 182.189781"></polygon>
        <polygon id="path-8" points="29.0284091 179.075426 103.460227 179.075426 95.9479557 223.454988 36.5406806 223.454988"></polygon>
        <polygon id="path-9" points="29.0284091 220.340633 103.460227 220.340633 95.9479557 264.720195 36.5406806 264.720195"></polygon>
        <polygon id="path-10" points="35.804092 261.605839 95.9402262 261.605839 100.482955 315.328467 31.2613636 315.328467"></polygon>
        <rect id="path-11" x="0" y="313.77129" width="131" height="6.22871046" rx="3.11435523"></rect>
        <path d="M76.8968572,30.5475505 L76.8968572,123.521991 L89.2639128,123.521991 L89.2639128,115.774121 L96.6841462,115.774121 L101.630968,113.191498 L101.630968,206.165939 L109.051202,206.165939 L109.051202,213.913809 L113.998024,213.913809 L113.998024,250.070536 L7.64134603,250.070536 L7.64134603,213.913809 L12.5881683,213.913809 L12.5881683,206.165939 L20.0084016,206.165939 L20.0084016,115.774121 L24.9552238,118.356745 L32.3754572,118.356745 L32.3754572,123.521991 L44.7425128,123.521991 L44.7425128,30.5475505 L52.1627461,33.1301739 L52.1627461,27.9649272 L60.819685,20.2170571 L69.4766239,27.9649272 L69.4766239,33.1301739 L76.8968572,30.5475505 Z M47.2159239,141.600355 L47.2159239,198.418069 L74.4234461,198.418069 L74.4234461,141.600355 L47.2159239,141.600355 Z" id="path-12"></path>
        <rect id="path-13" x="0.246990892" y="242.210476" width="118.723734" height="10.441802"></rect>
    </defs>
    <g id="iPad" stroke="none" stroke-width="1" fill="none" fill-rule="evenodd">
        <rect id="Rectangle-20-Copy" fill="url(#linearGradient-1)" x="0" y="0" width="768" height="1024"></rect>
        <g id="101-copy-2" transform="translate(11.000000, 594.000000)">
            <g id="Rectangle-4">
                <use fill="#F1FDFB" fill-rule="evenodd" xlink:href="#path-2"></use>
                <rect stroke="#979797" stroke-width="1.09234828" x="63.0689014" y="0.546174142" width="4.86219717" height="20.7081383" rx="0.786490765"></rect>
            </g>
            <g id="Rectangle-5">
                <use fill="#F1FDFB" fill-rule="evenodd" xlink:href="#path-3"></use>
                <path stroke="#979797" stroke-width="1.09234828" d="M54.1634853,20.0108943 L55.4723593,47.7263319 L74.7833226,47.7263319 L76.0921966,20.0108943 L54.1634853,20.0108943 Z"></path>
            </g>
            <g id="Rectangle-3">
                <use fill="#F1FDFB" fill-rule="evenodd" xlink:href="#path-4"></use>
                <rect stroke="#979797" stroke-width="1.09234828" x="42.9723105" y="44.9257362" width="45.7996972" height="20.7081383"></rect>
            </g>
            <g id="Rectangle-2-Copy-4">
                <use fill="#F1FDFB" fill-rule="evenodd" xlink:href="#path-5"></use>
                <path stroke="#979797" stroke-width="1.09234828" d="M29.6748055,59.7189235 L37.0021717,103.006137 L95.4864646,103.006137 L102.813831,59.7189235 L29.6748055,59.7189235 Z"></path>
            </g>
            <g id="Rectangle-2-Copy-3">
                <use fill="#F1FDFB" fill-rule="evenodd" xlink:href="#path-6"></use>
                <path stroke="#979797" stroke-width="1.09234828" d="M29.6748055,97.8697751 L37.0021717,141.156989 L95.4864646,141.156989 L102.813831,97.8697751 L29.6748055,97.8697751 Z"></path>
            </g>
            <g id="Rectangle-2-Copy-2">
                <use fill="#F1FDFB" fill-rule="evenodd" xlink:href="#path-7"></use>
                <path stroke="#979797" stroke-width="1.09234828" d="M29.6748055,138.356393 L37.0021717,181.643607 L95.4864646,181.643607 L102.813831,138.356393 L29.6748055,138.356393 Z"></path>
            </g>
            <g id="Rectangle-2-Copy">
                <use fill="#F1FDFB" fill-rule="evenodd" xlink:href="#path-8"></use>
                <path stroke="#979797" stroke-width="1.09234828" d="M29.6748055,179.6216 L37.0021717,222.908814 L95.4864646,222.908814 L102.813831,179.6216 L29.6748055,179.6216 Z"></path>
            </g>
            <g id="Rectangle-2">
                <use fill="#F1FDFB" fill-rule="evenodd" xlink:href="#path-9"></use>
                <path stroke="#979797" stroke-width="1.09234828" d="M29.6748055,220.886807 L37.0021717,264.174021 L95.4864646,264.174021 L102.813831,220.886807 L29.6748055,220.886807 Z"></path>
            </g>
            <g id="Rectangle">
                <use fill="#F1FDFB" fill-rule="evenodd" xlink:href="#path-10"></use>
                <path stroke="#979797" stroke-width="1.09234828" d="M36.3060314,262.152014 L31.8556708,314.782293 L99.8886473,314.782293 L95.4382868,262.152014 L36.3060314,262.152014 Z"></path>
            </g>
            <g id="Rectangle-6">
                <use fill="#F1FDFB" fill-rule="evenodd" xlink:href="#path-11"></use>
                <rect stroke="#979797" stroke-width="1.09234828" x="0.546174142" y="314.317464" width="129.907652" height="5.13636218" rx="2.56818109"></rect>
            </g>
        </g>
        <g id="台中-copy-2" transform="translate(275.854187, 838.712297)" stroke="#979797" stroke-width="1.09234828">
            <path d="M13.051312,13.9750571 C14.0688719,22.2192287 7.96351241,23.2200948 7.96351241,27.9501141 L44.5956695,27.9501141 L42.5605496,13.9750571 C38.49031,13.9750571 27.2971509,13.9750571 26.2795909,23.6500966 C23.2269112,19.350079 22.2093513,19.350079 22.2093513,13.9750571 L13.051312,13.9750571 Z" id="Path-14" stroke-linecap="round" stroke-linejoin="round"></path>
            <path d="M234.127265,27.9501141 C234.127265,21.6613384 228.211513,24.8057263 228.211513,17.4688213 L220.323843,17.4688213 C218.351926,22.7094677 213.422133,22.7094677 213.422133,27.9501141 L234.127265,27.9501141 Z" id="Path-15"></path>
            <path d="M210.236728,19.2157035 C210.236728,19.2157035 210.236728,15.6572399 210.236728,8.54031265 L188.780321,0 L156.084843,5.3376954 L156.084843,10.6753908 L187.758587,10.6753908 C202.744014,16.3689326 210.236728,19.2157035 210.236728,19.2157035 Z" id="Path-16"></path>
            <rect id="Rectangle" fill="#F5F5F5" stroke-linecap="round" stroke-linejoin="round" x="41.4102645" y="10.4812928" width="160.862951" height="66.381521"></rect>
            <rect id="Rectangle-2" fill="#F1EFEF" stroke-linecap="round" stroke-linejoin="round" x="0" y="27.9501141" width="49.3737769" height="45.4189354"></rect>
            <rect id="Rectangle-3" fill="#EDECEC" x="194.309703" y="27.9501141" width="50.9664794" height="48.9126997"></rect>
            <path d="M42.2540019,11.4233082 C42.4830751,12.2878423 41.5670396,14.2202567 39.5058952,17.2205514 C36.4141786,21.7209935 28.169601,18.3456619 25.0778844,26.2214356 C25.0778844,35.2223198 39.5058952,29.5967672 39.5058952,48.7236461 C39.5058952,68.9756356 26.1084566,63.350083 27.1390288,76.8514093 L75.5842769,76.5086009 C75.5842769,63.0072746 63.2090556,71.2258567 63.2090556,48.7236461 C63.2090556,30.7218777 77.6370663,34.0972093 77.6370663,26.2214356 C77.6370663,18.3456619 63.1882326,21.4502628 62.1576604,11.3242681 L42.2540019,11.4233082 Z" id="Path-8" fill="#DFFBF8" stroke-linecap="round" stroke-linejoin="round"></path>
            <path d="M118.313769,11.3663922 C116.570229,14.5266943 114.674579,16.8569191 112.626818,18.3570665 C109.555178,20.6072875 100.340256,19.482177 100.340256,26.2328402 C100.340256,36.3588349 119.79398,29.6081717 119.79398,48.7350507 C119.79398,64.486598 101.386498,62.4439721 102.410378,75.9452984 L152.578233,76.0385745 C153.602113,60.2870272 141.295463,66.7368191 141.295463,46.6315832 C141.295463,32.9835033 157.677546,31.8583928 157.677546,26.2328402 C157.677546,20.6072875 142.15433,17.0036682 142.15433,11.3781155 L118.313769,11.3663922 Z" id="Path-11" fill="#DFFBF8" stroke-linecap="round" stroke-linejoin="round"></path>
            <path d="" id="Path-12"></path>
            <path d="M187.514172,10.4812928 C187.514172,21.7323981 175.197273,18.3570665 175.197273,25.1077296 C175.197273,32.9835033 187.514172,27.3579507 187.514172,48.7350507 C187.514172,74.6125928 175.197273,66.7368191 175.197273,76.8628138 L214.200787,76.8628138 C214.200787,64.486598 202.910296,73.4874823 202.910296,48.7350507 C202.910296,23.9826191 221.385645,38.6958223 221.385645,26.2328402 C221.385645,18.3570665 201.883888,22.8575086 202.910296,10.4812928 L187.514172,10.4812928 Z" id="Path-13" fill="#FFFFFF" stroke-linecap="round" stroke-linejoin="round"></path>
        </g>
        <g id="road-copy-2" transform="translate(383.317373, 940.177189) scale(-1, 1) rotate(-1.500000) translate(-383.317373, -940.177189) translate(-0.682627, 907.177189)" stroke="#979797" stroke-width="1.09234828">
            <path d="M0.000969347619,4.22960363e-06 L768.000969,16.444464 L0.000969347619,4.22960363e-06 Z" id="Path-19"></path>
            <path d="M768.000969,65.7778433 L0.000969347619,47.5062213" id="Path-20" stroke-linecap="round" stroke-linejoin="round" stroke-dasharray="38.23218936970492,38.23218936970492"></path>
        </g>
        <g id="gogoro-copy-2" transform="translate(128.688477, 842.557550)" fill="#0A8BF3">
            <path d="M107.864856,21.7586224 L107.864856,12.2149553 C106.758549,12.2149553 106.205396,11.6332907 106.205396,10.4699617 C106.205396,8.72496806 106.205396,0 109.524315,0 C112.843234,0 114.502693,2.61749042 114.502693,6.97997444 C114.502693,9.88829713 113.396387,11.6332907 111.183774,12.2149553 L111.183774,20.0555366 C113.173534,19.3869466 115.044329,19.4706242 116.162152,20.9399233 C119.481071,25.3024074 111.183774,33.1548786 112.843234,34.8998722 C114.502693,36.6448658 134.416205,57.5847892 136.075664,71.5447381 C137.735123,85.504687 121.14053,115.169578 114.502693,115.169578 C110.077468,115.169578 86.2918846,115.169578 43.1459423,115.169578 C43.1459423,95.3929841 35.4017988,85.504687 19.9135118,85.504687 C19.9135118,82.0146997 19.9135118,80.2697061 19.9135118,80.2697061 C19.9135118,80.2697061 6.38529249,81.37928 4.97837795,80.2697061 C4.04043493,79.5299902 6.80620046,77.7849966 13.2756745,75.0347253 C12.1693683,73.1443155 11.6162152,70.9267195 11.6162152,68.3819371 C11.6162152,65.8371548 12.7225214,63.9830991 14.9351339,62.81977 C11.4911192,60.3009375 10.384813,58.5559439 11.6162152,57.5847892 C12.8476175,56.6136344 16.1665361,56.6136344 21.5729711,57.5847892 C20.4666649,52.9314729 22.1261242,50.6048147 26.5513491,50.6048147 C44.5680406,50.6048147 54.7621575,50.6048147 66.3783727,50.6048147 C77.994588,50.6048147 79.6540473,62.2138694 79.6540473,67.4488503 C79.6540473,72.6838311 74.6756693,85.504687 76.3351286,92.4846614 C77.994588,99.4646358 82.9729659,102.954623 94.5891811,102.954623 C106.205396,102.954623 112.843234,99.4646358 116.162152,92.4846614 C119.481071,85.504687 101.227018,34.8998722 102.886478,27.9198978 C102.886478,26.2586187 105.142562,23.6088517 107.864856,21.7586224 Z" id="Combined-Shape"></path>
            <path d="M146.03242,130.874521 C134.117997,130.874521 124.459449,120.718138 124.459449,108.189604 C124.459449,95.6610702 134.117997,85.504687 146.03242,85.504687 C157.946843,85.504687 167.605391,95.6610702 167.605391,108.189604 C167.605391,120.718138 157.946843,130.874521 146.03242,130.874521 Z M146.03242,122.149553 C153.364373,122.149553 159.308095,115.899471 159.308095,108.189604 C159.308095,100.479737 153.364373,94.229655 146.03242,94.229655 C138.700467,94.229655 132.756745,100.479737 132.756745,108.189604 C132.756745,115.899471 138.700467,122.149553 146.03242,122.149553 Z" id="Combined-Shape"></path>
            <path d="M21.5729711,130.874521 C9.65854817,130.874521 0,120.718138 0,108.189604 C0,95.6610702 9.65854817,85.504687 21.5729711,85.504687 C33.4873941,85.504687 43.1459423,95.6610702 43.1459423,108.189604 C43.1459423,120.718138 33.4873941,130.874521 21.5729711,130.874521 Z M21.5729711,122.149553 C28.9049237,122.149553 34.8486457,115.899471 34.8486457,108.189604 C34.8486457,100.479737 28.9049237,94.229655 21.5729711,94.229655 C14.2410185,94.229655 8.29729659,100.479737 8.29729659,108.189604 C8.29729659,115.899471 14.2410185,122.149553 21.5729711,122.149553 Z" id="Combined-Shape-Copy"></path>
            <ellipse id="Oval-Copy-2" cx="146.03242" cy="108.189604" rx="8.29729659" ry="8.72496806"></ellipse>
            <ellipse id="Oval-Copy-3" cx="21.5729711" cy="108.189604" rx="8.29729659" ry="8.72496806"></ellipse>
        </g>
        <ellipse id="Oval-Copy-7" stroke="#5397F0" stroke-width="1.09234828" fill="#FFFFFF" cx="110.292764" cy="946.426217" rx="10.2198409" ry="10.3868667"></ellipse>
        <ellipse id="Oval-Copy-8" stroke="#5397F0" stroke-width="1.09234828" fill="#FFFFFF" cx="87.8091138" cy="942.271471" rx="6.13190455" ry="6.23212004"></ellipse>
        <g id="85-copy-2" transform="translate(643.768460, 664.212935)">
            <g id="Combined-Shape">
                <use fill="#E0F6FB" fill-rule="evenodd" xlink:href="#path-12"></use>
                <path stroke="#979797" stroke-width="0.98944591" d="M76.4021343,31.2435715 L68.9819009,33.8261949 L68.9819009,28.1860813 L60.819685,20.8809831 L52.6574691,28.1860813 L52.6574691,33.8261949 L45.2372357,31.2435715 L45.2372357,124.016714 L31.8807342,124.016714 L31.8807342,118.851468 L24.8338545,118.851468 L20.5031246,116.590492 L20.5031246,206.660662 L13.0828912,206.660662 L13.0828912,214.408532 L8.13606899,214.408532 L8.13606899,249.575813 L113.503301,249.575813 L113.503301,214.408532 L108.556479,214.408532 L108.556479,206.660662 L101.136245,206.660662 L101.136245,114.007869 L96.8055155,116.268844 L89.7586358,116.268844 L89.7586358,124.016714 L76.4021343,124.016714 L76.4021343,31.2435715 Z M46.7212009,141.105632 L74.9181691,141.105632 L74.9181691,198.912792 L46.7212009,198.912792 L46.7212009,141.105632 Z"></path>
            </g>
            <g id="Rectangle">
                <use fill="#EFEEEE" fill-rule="evenodd" xlink:href="#path-13"></use>
                <rect stroke="#979797" stroke-width="0.98944591" x="0.741713847" y="242.705199" width="117.734288" height="9.45235605"></rect>
            </g>
            <path d="M60.4416018,2.0714659 L60.5227695,22.7288019" id="Path-23" stroke="#979797" stroke-width="0.98944591"></path>
        </g>
        <g id="台南-copy-2" transform="translate(541.570051, 774.313723)" fill="#FFFFF4" stroke="#979797" stroke-linecap="round" stroke-linejoin="round" stroke-width="0.98944591">
            <path d="M33.5921728,0.980981858 C37.3246364,-0.326993953 39.8129455,-0.326993953 41.0571001,0.980981858 C42.9233319,2.94294557 42.9233319,4.90490929 44.7895637,4.90490929 C46.6557955,4.90490929 44.7895637,2.94294557 46.6557955,0.980981858 C47.8999501,-0.326993953 49.7661819,0.326993953 52.254491,2.94294557 C49.7661819,4.25092139 47.8999501,5.5588972 46.6557955,6.86687301 C44.7895637,8.82883672 46.6557955,9.80981858 46.6557955,10.7908004 C46.6557955,11.7717823 46.6557955,12.7527642 44.7895637,14.7147279 C43.5454092,16.0227037 42.9233319,17.3306795 42.9233319,18.6386553 C41.9976455,16.7235553 41.3755682,14.7615916 41.0571001,12.7527642 C40.5793978,9.73952302 42.9233319,9.31932765 41.0571001,6.86687301 C39.1908682,4.41441836 37.3246364,6.86687301 35.4584046,4.90490929 C34.21425,3.59693348 33.5921728,2.28895767 33.5921728,0.980981858 Z" id="Combined-Shape-Copy-4"></path>
            <path d="M85.8466638,141.261388 L0,141.261388 L0,133.413533 L1.86623182,133.413533 L5.59869546,129.489605 L5.59869546,109.869968 C2.83793384,106.805326 1.59377929,104.843362 1.86623182,103.984077 C3.73246364,103.984077 5.59869546,105.946041 7.46492728,103.984077 C9.95323638,101.368125 9.3311591,99.4061616 5.59869546,98.0981858 C6.84285001,98.0981858 8.08700456,97.4441979 9.3311591,96.1362221 C11.1973909,94.1742584 7.46492728,82.4024761 14.9298546,72.5926575 C22.3947819,62.7828389 29.8597091,62.7828389 31.725941,60.8208752 L31.725941,54.9349841 L35.4584046,54.9349841 L35.4584046,45.1251655 L39.1908682,41.201238 L39.1908682,31.3914195 L41.0571001,29.4294557 L41.0571001,19.6196372 L44.7895637,19.6196372 L44.7895637,29.4294557 L46.6557955,31.3914195 L46.6557955,41.201238 L50.3882592,45.1251655 L50.3882592,54.9349841 L54.1207228,54.9349841 L54.1207228,60.8208752 C55.9869546,62.7828389 63.4518819,62.7828389 70.9168092,72.5926575 C78.3817365,82.4024761 74.6492728,94.1742584 76.5155047,96.1362221 C77.7596592,97.4441979 79.0038137,98.0981858 80.2479683,98.0981858 C76.5155047,99.4061616 75.8934274,101.368125 78.3817365,103.984077 C80.2479683,105.946041 82.1142001,103.984077 83.9804319,103.984077 C84.2528845,104.843362 83.0087299,106.805326 80.2479683,109.869968 L80.2479683,129.489605 L83.9804319,133.413533 L85.8466638,133.413533 L85.8466638,141.261388 Z M41.0571001,107.908004 L39.1908682,111.831932 L39.1908682,129.489605 L46.6557955,129.489605 L46.6557955,111.831932 L44.7895637,107.908004 L41.0571001,107.908004 Z M27.9934773,107.908004 L26.1272455,111.831932 L26.1272455,129.489605 L33.5921728,129.489605 L33.5921728,111.831932 L31.725941,107.908004 L27.9934773,107.908004 Z M14.9298546,107.908004 L13.0636227,111.831932 L13.0636227,129.489605 L20.52855,129.489605 L20.52855,111.831932 L18.6623182,107.908004 L14.9298546,107.908004 Z M54.1207228,107.908004 L52.254491,111.831932 L52.254491,129.489605 L59.7194183,129.489605 L59.7194183,111.831932 L57.8531864,107.908004 L54.1207228,107.908004 Z M67.1843456,107.908004 L65.3181137,111.831932 L65.3181137,129.489605 L72.783041,129.489605 L72.783041,111.831932 L70.9168092,107.908004 L67.1843456,107.908004 Z" id="Combined-Shape-Copy-5"></path>
        </g>
    </g>
</svg>