<?xml version="1.0" encoding="UTF-8"?>
<svg width="375px" height="667px" viewBox="0 0 375 667" version="1.1" xmlns="http://www.w3.org/2000/svg" xmlns:xlink="http://www.w3.org/1999/xlink">
    <!-- Generator: Sketch 49.3 (51167) - http://www.bohemiancoding.com/sketch -->
    <title>login_page</title>
    <desc>Created with Sketch.</desc>
    <defs>
        <linearGradient x1="50%" y1="100%" x2="50.6060719%" y2="32.8684673%" id="linearGradient-1">
            <stop stop-color="#FFFFFF" offset="0%"></stop>
            <stop stop-color="#FFFFFF" offset="29.4639632%"></stop>
            <stop stop-color="#53C0F0" offset="100%"></stop>
        </linearGradient>
        <rect id="path-2" x="30.5454545" y="0" width="2.90909091" height="10.4914842" rx="0.786490765"></rect>
        <polygon id="path-3" points="26.1818182 9.36739659 37.4545455 9.36739659 36.7898929 23.2311436 26.8464707 23.2311436"></polygon>
        <rect id="path-4" x="20.7272727" y="21.3576642" width="22.9090909" height="10.4914842"></rect>
        <polygon id="path-5" points="14.1818182 28.4768856 50.5454545 28.4768856 46.8753371 49.8345499 17.8519356 49.8345499"></polygon>
        <polygon id="path-6" points="14.1818182 46.836983 50.5454545 46.836983 46.8753371 68.1946472 17.8519356 68.1946472"></polygon>
        <polygon id="path-7" points="14.1818182 66.3211679 50.5454545 66.3211679 46.8753371 87.6788321 17.8519356 87.6788321"></polygon>
        <polygon id="path-8" points="14.1818182 86.1800487 50.5454545 86.1800487 46.8753371 107.537713 17.8519356 107.537713"></polygon>
        <polygon id="path-9" points="14.1818182 106.038929 50.5454545 106.038929 46.8753371 127.396594 17.8519356 127.396594"></polygon>
        <polygon id="path-10" points="17.4920755 125.89781 46.8715609 125.89781 49.0909091 151.751825 15.2727273 151.751825"></polygon>
        <rect id="path-11" x="0" y="151.002433" width="64" height="2.99756691" rx="1.49878345"></rect>
        <path d="M37.6213572,14.7048919 L37.6213572,59.4606606 L43.67187,59.4606606 L43.67187,55.7310132 L47.3021776,55.7310132 L49.7223827,54.4877974 L49.7223827,99.2435661 L53.3526904,99.2435661 L53.3526904,102.973213 L55.7728955,102.973213 L55.7728955,120.378235 L3.7384858,120.378235 L3.7384858,102.973213 L6.1586909,102.973213 L6.1586909,99.2435661 L9.78899855,99.2435661 L9.78899855,55.7310132 L12.2092037,56.974229 L15.8395113,56.974229 L15.8395113,59.4606606 L21.8900241,59.4606606 L21.8900241,14.7048919 L25.5203317,15.9481077 L25.5203317,13.4616761 L29.7556906,9.73202874 L33.9910496,13.4616761 L33.9910496,15.9481077 L37.6213572,14.7048919 Z M23.1001266,68.1631712 L23.1001266,95.5139187 L36.4112547,95.5139187 L36.4112547,68.1631712 L23.1001266,68.1631712 Z" id="path-12"></path>
        <rect id="path-13" x="0.120838912" y="116.594582" width="58.0849225" height="5.02644456"></rect>
    </defs>
    <g id="login_page" stroke="none" stroke-width="1" fill="none" fill-rule="evenodd">
        <rect id="Rectangle-20-Copy" fill="url(#linearGradient-1)" x="0" y="-3" width="377" height="679"></rect>
        <g id="101-copy" transform="translate(4.000000, 456.000000)">
            <g id="Rectangle-4">
                <use fill="#F1FDFB" fill-rule="evenodd" xlink:href="#path-2"></use>
                <rect stroke="#979797" stroke-width="1.09234828" x="31.0916287" y="0.546174142" width="1.81674262" height="9.3991359" rx="0.786490765"></rect>
            </g>
            <g id="Rectangle-5">
                <use fill="#F1FDFB" fill-rule="evenodd" xlink:href="#path-3"></use>
                <path stroke="#979797" stroke-width="1.09234828" d="M26.7548042,9.91357074 L27.3670876,22.6849694 L36.269276,22.6849694 L36.8815595,9.91357074 L26.7548042,9.91357074 Z"></path>
            </g>
            <g id="Rectangle-3">
                <use fill="#F1FDFB" fill-rule="evenodd" xlink:href="#path-4"></use>
                <rect stroke="#979797" stroke-width="1.09234828" x="21.2734469" y="21.9038384" width="21.8167426" height="9.3991359"></rect>
            </g>
            <g id="Rectangle-2-Copy-4">
                <use fill="#F1FDFB" fill-rule="evenodd" xlink:href="#path-5"></use>
                <path stroke="#979797" stroke-width="1.09234828" d="M14.8298527,29.0230598 L18.3122601,49.2883757 L46.4150126,49.2883757 L49.89742,29.0230598 L14.8298527,29.0230598 Z"></path>
            </g>
            <g id="Rectangle-2-Copy-3">
                <use fill="#F1FDFB" fill-rule="evenodd" xlink:href="#path-6"></use>
                <path stroke="#979797" stroke-width="1.09234828" d="M14.8298527,47.3831571 L18.3122601,67.6484731 L46.4150126,67.6484731 L49.89742,47.3831571 L14.8298527,47.3831571 Z"></path>
            </g>
            <g id="Rectangle-2-Copy-2">
                <use fill="#F1FDFB" fill-rule="evenodd" xlink:href="#path-7"></use>
                <path stroke="#979797" stroke-width="1.09234828" d="M14.8298527,66.867342 L18.3122601,87.132658 L46.4150126,87.132658 L49.89742,66.867342 L14.8298527,66.867342 Z"></path>
            </g>
            <g id="Rectangle-2-Copy">
                <use fill="#F1FDFB" fill-rule="evenodd" xlink:href="#path-8"></use>
                <path stroke="#979797" stroke-width="1.09234828" d="M14.8298527,86.7262228 L18.3122601,106.991539 L46.4150126,106.991539 L49.89742,86.7262228 L14.8298527,86.7262228 Z"></path>
            </g>
            <g id="Rectangle-2">
                <use fill="#F1FDFB" fill-rule="evenodd" xlink:href="#path-9"></use>
                <path stroke="#979797" stroke-width="1.09234828" d="M14.8298527,106.585104 L18.3122601,126.85042 L46.4150126,126.85042 L49.89742,106.585104 L14.8298527,106.585104 Z"></path>
            </g>
            <g id="Rectangle">
                <use fill="#F1FDFB" fill-rule="evenodd" xlink:href="#path-10"></use>
                <path stroke="#979797" stroke-width="1.09234828" d="M17.9933738,126.443984 L15.8677945,151.205651 L48.4958419,151.205651 L46.3702626,126.443984 L17.9933738,126.443984 Z"></path>
            </g>
            <g id="Rectangle-6">
                <use fill="#F1FDFB" fill-rule="evenodd" xlink:href="#path-11"></use>
                <rect stroke="#979797" stroke-width="1.09234828" x="0.546174142" y="151.548607" width="62.9076517" height="1.90521863" rx="0.952609313"></rect>
            </g>
        </g>
        <g id="台中-copy" transform="translate(134.000000, 573.000000)" stroke="#979797" stroke-width="1.09234828">
            <path d="M6.38528139,6.72727273 C6.88311688,10.6958283 3.8961039,11.1776224 3.8961039,13.4545455 L21.8181818,13.4545455 L20.8225108,6.72727273 C18.8311688,6.72727273 13.3549784,6.72727273 12.8571429,11.3846154 C11.3636364,9.31468531 10.8658009,9.31468531 10.8658009,6.72727273 L6.38528139,6.72727273 Z" id="Path-14" stroke-linecap="round" stroke-linejoin="round"></path>
            <path d="M114.545455,13.4545455 C114.545455,10.4272727 111.651206,11.9409091 111.651206,8.40909091 L107.792208,8.40909091 C106.827458,10.9318182 104.415584,10.9318182 104.415584,13.4545455 L114.545455,13.4545455 Z" id="Path-15"></path>
            <path d="M102.857143,9.25 C102.857143,9.25 102.857143,7.53703704 102.857143,4.11111111 L92.3597158,0 L76.3636364,2.56944444 L76.3636364,5.13888889 L91.8598383,5.13888889 C99.1913747,7.87962963 102.857143,9.25 102.857143,9.25 Z" id="Path-16"></path>
            <rect id="Rectangle" fill="#F5F5F5" stroke-linecap="round" stroke-linejoin="round" x="20.2597403" y="5.04545455" width="78.7012987" height="31.9545455"></rect>
            <rect id="Rectangle-2" fill="#F1EFEF" stroke-linecap="round" stroke-linejoin="round" x="0" y="13.4545455" width="24.1558442" height="21.8636364"></rect>
            <rect id="Rectangle-3" fill="#EDECEC" x="95.0649351" y="13.4545455" width="24.9350649" height="23.5454545"></rect>
            <path d="M20.6725341,5.49891921 C20.7846069,5.91508613 20.3364416,6.84530621 19.3280382,8.28957945 C17.8154332,10.4559893 13.7818197,8.83118192 12.2692147,12.6223992 C12.2692147,16.9552189 19.3280382,14.2472066 19.3280382,23.4544485 C19.3280382,33.2032929 12.7734164,30.4952805 13.277618,36.9945101 L36.9791847,36.82949 C36.9791847,30.3302604 30.9246769,34.2864978 30.9246769,23.4544485 C30.9246769,14.788809 37.9835004,16.4136164 37.9835004,12.6223992 C37.9835004,8.83118192 30.9144893,10.3256658 30.4102876,5.45124358 L20.6725341,5.49891921 Z" id="Path-8" fill="#DFFBF8" stroke-linecap="round" stroke-linejoin="round"></path>
            <path d="M57.8843498,5.47152113 C57.0313324,6.99281829 56.1038961,8.11453518 55.1020408,8.8366718 C53.5992579,9.91987673 49.0909091,9.37827427 49.0909091,12.6278891 C49.0909091,17.5023112 58.6085343,14.2526965 58.6085343,23.4599384 C58.6085343,31.0423729 49.6027771,30.0590995 50.1037048,36.5583291 L74.6480471,36.6032301 C75.1489747,29.0207955 69.1280148,32.1255778 69.1280148,22.4473772 C69.1280148,15.8775039 77.1428571,15.3359014 77.1428571,12.6278891 C77.1428571,9.91987673 69.5482107,8.18517683 69.5482107,5.4771645 L57.8843498,5.47152113 Z" id="Path-11" fill="#DFFBF8" stroke-linecap="round" stroke-linejoin="round"></path>
            <path d="" id="Path-12"></path>
            <path d="M91.7402597,5.04545455 C91.7402597,10.4614792 85.7142857,8.8366718 85.7142857,12.0862866 C85.7142857,15.8775039 91.7402597,13.1694915 91.7402597,23.4599384 C91.7402597,35.9167951 85.7142857,32.1255778 85.7142857,37 L104.796537,37 C104.796537,31.0423729 99.2727273,35.3751926 99.2727273,23.4599384 C99.2727273,11.5446841 108.311688,18.6272835 108.311688,12.6278891 C108.311688,8.8366718 98.7705628,11.0030817 99.2727273,5.04545455 L91.7402597,5.04545455 Z" id="Path-13" fill="#FFFFFF" stroke-linecap="round" stroke-linejoin="round"></path>
        </g>
        <g id="road-copy" transform="translate(187.933110, 624.901667) scale(-1, 1) rotate(-1.500000) translate(-187.933110, -624.901667) translate(0.433110, 605.901667)" stroke="#979797" stroke-width="1.09234828">
            <path d="M0,0 L375,9.5 L0,0 Z" id="Path-19"></path>
            <path d="M375,38 L0,27.4444444" id="Path-20" stroke-linecap="round" stroke-linejoin="round" stroke-dasharray="38.23218936970492,38.23218936970492"></path>
        </g>
        <g id="road-copy-2" transform="translate(187.933110, 679.901667) scale(-1, 1) rotate(-1.500000) translate(-187.933110, -679.901667) translate(0.433110, 660.901667)" stroke="#979797" stroke-width="1.09234828">
            <path d="M0,0 L375,9.5 L0,0 Z" id="Path-19"></path>
        </g>
        <g id="gogoro-copy" transform="translate(62.000000, 571.000000)" fill="#0A8BF3">
            <path d="M52.7722772,10.474103 L52.7722772,5.88 C52.2310231,5.88 51.960396,5.6 51.960396,5.04 C51.960396,4.2 51.960396,0 53.5841584,0 C55.2079208,0 56.019802,1.26 56.019802,3.36 C56.019802,4.76 55.4785479,5.6 54.3960396,5.88 L54.3960396,9.65427644 C55.3695182,9.33243253 56.2847946,9.37271299 56.8316832,10.08 C58.4554455,12.18 54.3960396,15.96 55.2079208,16.8 C56.019802,17.64 65.7623762,27.72 66.5742574,34.44 C67.3861386,41.16 59.2673267,55.44 56.019802,55.44 C53.8547855,55.44 42.2178218,55.44 21.1089109,55.44 C21.1089109,45.92 17.320132,41.16 9.74257426,41.16 C9.74257426,39.48 9.74257426,38.64 9.74257426,38.64 C9.74257426,38.64 3.12396863,39.1741235 2.43564356,38.64 C1.97676019,38.2839177 3.3298955,37.4439177 6.4950495,36.12 C5.95379538,35.21 5.68316832,34.1425 5.68316832,32.9175 C5.68316832,31.6925 6.22442244,30.8 7.30693069,30.24 C5.62196578,29.0274917 5.08071165,28.1874917 5.68316832,27.72 C6.28562498,27.2525083 7.90938736,27.2525083 10.5544554,27.72 C10.0132013,25.48 10.8250825,24.36 12.990099,24.36 C21.8046645,24.36 26.7920792,24.36 32.4752475,24.36 C38.1584158,24.36 38.970297,29.9483333 38.970297,32.4683333 C38.970297,34.9883333 36.5346535,41.16 37.3465347,44.52 C38.1584158,47.88 40.5940594,49.56 46.2772277,49.56 C51.960396,49.56 55.2079208,47.88 56.8316832,44.52 C58.4554455,41.16 49.5247525,16.8 50.3366337,13.44 C50.3366337,12.6402983 51.4404104,11.3647611 52.7722772,10.474103 Z" id="Combined-Shape"></path>
            <path d="M71.4455446,63 C65.6164798,63 60.8910891,58.1109495 60.8910891,52.08 C60.8910891,46.0490505 65.6164798,41.16 71.4455446,41.16 C77.2746093,41.16 82,46.0490505 82,52.08 C82,58.1109495 77.2746093,63 71.4455446,63 Z M71.4455446,58.8 C75.0326613,58.8 77.9405941,55.7913535 77.9405941,52.08 C77.9405941,48.3686465 75.0326613,45.36 71.4455446,45.36 C67.8584278,45.36 64.950495,48.3686465 64.950495,52.08 C64.950495,55.7913535 67.8584278,58.8 71.4455446,58.8 Z" id="Combined-Shape"></path>
            <path d="M10.5544554,63 C4.72539066,63 0,58.1109495 0,52.08 C0,46.0490505 4.72539066,41.16 10.5544554,41.16 C16.3835202,41.16 21.1089109,46.0490505 21.1089109,52.08 C21.1089109,58.1109495 16.3835202,63 10.5544554,63 Z M10.5544554,58.8 C14.1415722,58.8 17.049505,55.7913535 17.049505,52.08 C17.049505,48.3686465 14.1415722,45.36 10.5544554,45.36 C6.96733865,45.36 4.05940594,48.3686465 4.05940594,52.08 C4.05940594,55.7913535 6.96733865,58.8 10.5544554,58.8 Z" id="Combined-Shape-Copy"></path>
            <ellipse id="Oval-Copy-2" cx="71.4455446" cy="52.08" rx="4.05940594" ry="4.2"></ellipse>
            <ellipse id="Oval-Copy-3" cx="10.5544554" cy="52.08" rx="4.05940594" ry="4.2"></ellipse>
        </g>
        <circle id="Oval-Copy-5" stroke="#5397F0" stroke-width="1.09234828" fill="#FFFFFF" cx="53" cy="624" r="5"></circle>
        <circle id="Oval-Copy-6" stroke="#5397F0" stroke-width="1.09234828" fill="#FFFFFF" cx="42" cy="622" r="3"></circle>
        <g id="85-copy" transform="translate(314.000000, 489.000000)">
            <g id="Combined-Shape">
                <use fill="#E0F6FB" fill-rule="evenodd" xlink:href="#path-12"></use>
                <path stroke="#979797" stroke-width="0.98944591" d="M37.1266343,15.3972404 L33.4963266,16.6404562 L33.4963266,13.6852233 L29.7556906,10.3912278 L26.0150547,13.6852233 L26.0150547,16.6404562 L22.384747,15.3972404 L22.384747,59.9553835 L15.3447884,59.9553835 L15.3447884,57.4689519 L12.089569,57.4689519 L10.2837215,56.5413206 L10.2837215,99.738289 L6.65341386,99.738289 L6.65341386,103.467936 L4.23320875,103.467936 L4.23320875,119.883512 L55.2781725,119.883512 L55.2781725,103.467936 L52.8579674,103.467936 L52.8579674,99.738289 L49.2276598,99.738289 L49.2276598,55.2981048 L47.4218123,56.2257362 L44.1665929,56.2257362 L44.1665929,59.9553835 L37.1266343,59.9553835 L37.1266343,15.3972404 Z M22.6054037,67.6684482 L36.9059776,67.6684482 L36.9059776,96.0086416 L22.6054037,96.0086416 L22.6054037,67.6684482 Z"></path>
            </g>
            <g id="Rectangle">
                <use fill="#EFEEEE" fill-rule="evenodd" xlink:href="#path-13"></use>
                <rect stroke="#979797" stroke-width="0.98944591" x="0.615561867" y="117.089305" width="57.0954765" height="4.03699865"></rect>
            </g>
            <path d="M29.5707156,0.997156292 L29.6104264,10.9411252" id="Path-23" stroke="#979797" stroke-width="0.98944591"></path>
        </g>
        <g id="台南-copy" transform="translate(264.000000, 542.000000)" fill="#FFFFF4" stroke="#979797" stroke-linecap="round" stroke-linejoin="round" stroke-width="0.98944591">
            <path d="M16.4347826,0.472222222 C18.2608696,-0.157407407 19.4782609,-0.157407407 20.0869565,0.472222222 C21,1.41666667 21,2.36111111 21.9130435,2.36111111 C22.826087,2.36111111 21.9130435,1.41666667 22.826087,0.472222222 C23.4347826,-0.157407407 24.3478261,0.157407407 25.5652174,1.41666667 C24.3478261,2.0462963 23.4347826,2.67592593 22.826087,3.30555556 C21.9130435,4.25 22.826087,4.72222222 22.826087,5.19444444 C22.826087,5.66666667 22.826087,6.13888889 21.9130435,7.08333333 C21.3043478,7.71296296 21,8.34259259 21,8.97222222 C20.5471131,8.05033689 20.2427653,7.10589245 20.0869565,6.13888889 C19.8532434,4.68838355 21,4.48611111 20.0869565,3.30555556 C19.173913,2.125 18.2608696,3.30555556 17.3478261,2.36111111 C16.7391304,1.73148148 16.4347826,1.10185185 16.4347826,0.472222222 Z" id="Combined-Shape-Copy-4"></path>
            <path d="M42,68 L0,68 L0,64.2222222 L0.913043478,64.2222222 L2.73913043,62.3333333 L2.73913043,52.8888889 C1.38844325,51.4136404 0.779747602,50.4691959 0.913043478,50.0555556 C1.82608696,50.0555556 2.73913043,51 3.65217391,50.0555556 C4.86956522,48.7962963 4.56521739,47.8518519 2.73913043,47.2222222 C3.34782609,47.2222222 3.95652174,46.9074074 4.56521739,46.2777778 C5.47826087,45.3333333 3.65217391,39.6666667 7.30434783,34.9444444 C10.9565217,30.2222222 14.6086957,30.2222222 15.5217391,29.2777778 L15.5217391,26.4444444 L17.3478261,26.4444444 L17.3478261,21.7222222 L19.173913,19.8333333 L19.173913,15.1111111 L20.0869565,14.1666667 L20.0869565,9.44444444 L21.9130435,9.44444444 L21.9130435,14.1666667 L22.826087,15.1111111 L22.826087,19.8333333 L24.6521739,21.7222222 L24.6521739,26.4444444 L26.4782609,26.4444444 L26.4782609,29.2777778 C27.3913043,30.2222222 31.0434783,30.2222222 34.6956522,34.9444444 C38.3478261,39.6666667 36.5217391,45.3333333 37.4347826,46.2777778 C38.0434783,46.9074074 38.6521739,47.2222222 39.2608696,47.2222222 C37.4347826,47.8518519 37.1304348,48.7962963 38.3478261,50.0555556 C39.2608696,51 40.173913,50.0555556 41.0869565,50.0555556 C41.2202524,50.4691959 40.6115567,51.4136404 39.2608696,52.8888889 L39.2608696,62.3333333 L41.0869565,64.2222222 L42,64.2222222 L42,68 Z M20.0869565,51.9444444 L19.173913,53.8333333 L19.173913,62.3333333 L22.826087,62.3333333 L22.826087,53.8333333 L21.9130435,51.9444444 L20.0869565,51.9444444 Z M13.6956522,51.9444444 L12.7826087,53.8333333 L12.7826087,62.3333333 L16.4347826,62.3333333 L16.4347826,53.8333333 L15.5217391,51.9444444 L13.6956522,51.9444444 Z M7.30434783,51.9444444 L6.39130435,53.8333333 L6.39130435,62.3333333 L10.0434783,62.3333333 L10.0434783,53.8333333 L9.13043478,51.9444444 L7.30434783,51.9444444 Z M26.4782609,51.9444444 L25.5652174,53.8333333 L25.5652174,62.3333333 L29.2173913,62.3333333 L29.2173913,53.8333333 L28.3043478,51.9444444 L26.4782609,51.9444444 Z M32.8695652,51.9444444 L31.9565217,53.8333333 L31.9565217,62.3333333 L35.6086957,62.3333333 L35.6086957,53.8333333 L34.6956522,51.9444444 L32.8695652,51.9444444 Z" id="Combined-Shape-Copy-5"></path>
        </g>
    </g>
</svg>