<?xml version="1.0" encoding="UTF-8"?>
<svg width="108px" height="108px" viewBox="0 0 108 108" version="1.1" xmlns="http://www.w3.org/2000/svg" xmlns:xlink="http://www.w3.org/1999/xlink">
    <!-- Generator: Sketch 49 (51002) - http://www.bohemiancoding.com/sketch -->
    <title>G</title>
    <desc>Created with Sketch.</desc>
    <defs>
        <path d="M60,114 L60,114 C30.1766235,114 6,89.8233765 6,60 C6,30.1766235 30.1766235,6 60,6 C89.8233765,6 114,30.1766235 114,60 C114,89.8233765 89.8233765,114 60,114 L60,114 Z" id="path-1"></path>
        <filter x="-3.7%" y="-3.7%" width="107.4%" height="107.4%" filterUnits="objectBoundingBox" id="filter-2">
            <feGaussianBlur stdDeviation="3" in="SourceAlpha" result="shadowBlurInner1"></feGaussianBlur>
            <feOffset dx="0" dy="2" in="shadowBlurInner1" result="shadowOffsetInner1"></feOffset>
            <feComposite in="shadowOffsetInner1" in2="SourceAlpha" operator="arithmetic" k2="-1" k3="1" result="shadowInnerInner1"></feComposite>
            <feColorMatrix values="0 0 0 0 0   0 0 0 0 0   0 0 0 0 0  0 0 0 0.5 0" type="matrix" in="shadowInnerInner1"></feColorMatrix>
        </filter>
        <path d="M79.38,67.12 L79.38,73.42 C79.38,76.96 79.44,78.58 79.8,81.22 C75.54,83.56 73.38,84.52 70.2,85.36 C67.5,86.08 64.32,86.5 61.38,86.5 C53.88,86.5 48.12,84.16 44.34,79.6 C40.68,75.28 38.7,68.8 38.7,61.36 C38.7,51.82 42.06,44.5 48.3,40.3 C52.02,37.84 56.1,36.76 61.62,36.76 C67.08,36.76 72.06,38.62 75.42,41.92 C77.52,43.96 78.6,45.7 79.86,49.06 L71.64,51.28 C69.66,45.82 66.78,43.9 60.6,43.9 C57.06,43.9 53.76,45.22 51.48,47.56 C48.48,50.68 47.04,55.12 47.04,61.24 C47.04,67.42 48.42,72.1 51.12,75.28 C53.58,78.16 56.82,79.42 61.56,79.42 C65.64,79.42 68.7,78.64 71.76,76.72 L71.76,66.94 L68.52,66.94 C65.46,66.94 64.2,67 62.4,67.3 L62.4,59.56 C64.56,59.86 65.88,59.92 69.6,59.92 L72.72,59.92 C75.48,59.92 77.22,59.86 79.8,59.68 C79.5,61.9 79.38,63.76 79.38,67.12 Z" id="path-3"></path>
        <filter x="-9.7%" y="-8.0%" width="119.4%" height="116.1%" filterUnits="objectBoundingBox" id="filter-4">
            <feGaussianBlur stdDeviation="3" in="SourceAlpha" result="shadowBlurInner1"></feGaussianBlur>
            <feOffset dx="0" dy="2" in="shadowBlurInner1" result="shadowOffsetInner1"></feOffset>
            <feComposite in="shadowOffsetInner1" in2="SourceAlpha" operator="arithmetic" k2="-1" k3="1" result="shadowInnerInner1"></feComposite>
            <feColorMatrix values="0 0 0 0 0   0 0 0 0 0   0 0 0 0 0  0 0 0 0.5 0" type="matrix" in="shadowInnerInner1"></feColorMatrix>
        </filter>
    </defs>
    <g id="Page-1" stroke="none" stroke-width="1" fill="none" fill-rule="evenodd">
        <g id="G" transform="translate(-6.000000, -6.000000)">
            <g>
                <rect id="Rectangle-2" x="0" y="0" width="120" height="120"></rect>
                <g id="Combined-Shape" fill-rule="nonzero" transform="translate(60.000000, 60.000000) rotate(270.000000) translate(-60.000000, -60.000000) ">
                    <use fill="#4A90E2" fill-rule="evenodd" xlink:href="#path-1"></use>
                    <use fill="black" fill-opacity="1" filter="url(#filter-2)" xlink:href="#path-1"></use>
                </g>
                <path d="M60,104 L60,104 C84.300529,104 104,84.300529 104,60 C104,35.699471 84.300529,16 60,16 C35.699471,16 16,35.699471 16,60 C16,84.300529 35.699471,104 60,104 L60,104 Z" id="Oval-15" fill="#FFFFFF"></path>
                <g>
                    <use fill="#4A90E2" fill-rule="evenodd" xlink:href="#path-3"></use>
                    <use fill="black" fill-opacity="1" filter="url(#filter-4)" xlink:href="#path-3"></use>
                </g>
            </g>
        </g>
    </g>
</svg>