<?xml version="1.0" encoding="UTF-8"?>
<svg width="50px" height="60px" viewBox="0 0 50 60" version="1.1" xmlns="http://www.w3.org/2000/svg" xmlns:xlink="http://www.w3.org/1999/xlink">
    <!-- Generator: Sketch 49.3 (51167) - http://www.bohemiancoding.com/sketch -->
    <title>i_black_battery</title>
    <desc>Created with Sketch.</desc>
    <defs></defs>
    <g id="i_black_battery" stroke="none" stroke-width="1" fill="none" fill-rule="evenodd">
        <g id="i_black_battery-copy" transform="translate(4.000000, 6.000000)">
            <path d="M12.8727549,38.9253783 C5.32095848,35.9116301 0,28.667535 0,20.2100773 C0,9.0483598 9.26770602,0 20.7000008,0 C32.1322955,0 41.4000015,9.0483598 41.4000015,20.2100773 C41.4000015,28.667535 36.079043,35.9116301 28.5272466,38.9253783 L20.7000008,48.3000018 L12.8727549,38.9253783 Z" id="Combined-Shape" fill="#000000"></path>
            <g id="Group-3" transform="translate(11.040000, 6.900000)" stroke="#FFFFFF" stroke-width="0.9">
                <path d="M0.066146156,22.6686722 L0,22.6686722 L0,3.72825189 L19.3200007,3.72825189 L19.3200007,22.6686722 L19.2538546,22.6686722 C18.6913835,24.6683876 14.6105878,26.220001 9.66000036,26.220001 C4.70941294,26.220001 0.628617203,24.6683876 0.066146156,22.6686722 Z" id="Combined-Shape" fill="#000000" stroke-linecap="round" stroke-linejoin="round"></path>
                <ellipse id="Oval-2-Copy" fill="#000000" cx="9.66000036" cy="2.9337064" rx="9.66000036" ry="2.9337064"></ellipse>
                <path d="M2.51791903,4.71782443 L16.7814185,0.996838421" id="Path-2" stroke-linecap="round" stroke-linejoin="round"></path>
                <path d="M10.2595893,14.146626 C11.6208898,12.7417589 12.9714958,11.7090803 14.9137208,12.3731266 C14.9540781,12.3869247 14.9984834,12.4022127 15.0348957,12.4217928 C17.0923795,13.5281735 17.1633265,15.7568723 15.7407615,16.749074 C13.0654076,18.6150629 10.3629036,16.2028777 8.5772841,14.146626 C7.03720266,12.3731266 5.15741304,11.231929 3.45706554,12.7417589 C2.15062038,13.9018217 2.15363717,16.3179696 4.37348648,17.0939752 C6.24608846,17.7485915 7.271834,17.0939752 8.5772841,15.9345837" id="Path-3"></path>
            </g>
        </g>
    </g>
</svg>