<?xml version="1.0" encoding="UTF-8"?>
<svg width="50px" height="60px" viewBox="0 0 50 60" version="1.1" xmlns="http://www.w3.org/2000/svg" xmlns:xlink="http://www.w3.org/1999/xlink">
    <!-- Generator: Sketch 49.3 (51167) - http://www.bohemiancoding.com/sketch -->
    <title>i_shop</title>
    <desc>Created with Sketch.</desc>
    <defs>
        <filter x="0.0%" y="0.0%" width="100.0%" height="100.0%" filterUnits="objectBoundingBox" id="filter-1">
            <feGaussianBlur stdDeviation="0" in="SourceGraphic"></feGaussianBlur>
        </filter>
        <filter x="0.0%" y="0.0%" width="100.0%" height="100.0%" filterUnits="objectBoundingBox" id="filter-2">
            <feGaussianBlur stdDeviation="0" in="SourceGraphic"></feGaussianBlur>
        </filter>
    </defs>
    <g id="i_shop" stroke="none" stroke-width="1" fill="none" fill-rule="evenodd">
        <g id="i_green_black_battery" transform="translate(2.000000, 3.000000)">
            <path d="M14.5518094,44.2443725 C6.01499632,40.8188078 0,32.5848367 0,22.9717019 C0,10.2847813 10.4765369,0 23.4,0 C36.3234631,0 46.8,10.2847813 46.8,22.9717019 C46.8,32.5848367 40.7850037,40.8188078 32.2481906,44.2443725 L23.4,54.9 L14.5518094,44.2443725 Z" id="Combined-Shape" fill="#527425" filter="url(#filter-1)"></path>
            <path d="M15.5727544,41.7436911 C8.02095828,38.7207826 2.7,31.4546693 2.7,22.9715053 C2.7,11.7758621 11.9677057,2.7 23.4,2.7 C34.8322943,2.7 44.1,11.7758621 44.1,22.9715053 C44.1,31.4546693 38.7790417,38.7207826 31.2272456,41.7436911 L23.4,51.1468085 L15.5727544,41.7436911 Z" id="Combined-Shape-Copy" fill="#FFFFFF" filter="url(#filter-2)"></path>
        </g>
        <g id="Group" transform="translate(10.000000, 16.000000)" fill="#527425">
            <path d="M6.15120234,0 C16.771946,2.39340306e-16 23.3457651,2.39340306e-16 25.8726595,0 C29.6630011,-3.59010459e-16 32.3959765,2.64842516 32.3959765,6.46735747 C32.3959765,10.2862898 29.3697616,12.9049024 25.8726595,12.9049024 C25.316044,12.9049024 24.7926962,12.9049024 24.302616,12.9049024 C24.302616,15.7566391 22.4239398,17.8334951 19.638426,17.8334951 C16.8529122,17.8334951 12.661568,17.8334951 9.87458803,17.8334951 C7.08760806,17.8334951 5,15.6114864 5,12.9049024 C5,10.1983185 5,1.95467363 5,1.18419158 C5,0.670536874 5.38373411,0.275806348 6.15120234,0 Z M24.3000454,3.16502555 L24.3000454,9.57271295 C24.2301121,9.57271295 24.7743602,9.57271295 25.9327895,9.57271295 C27.6704336,9.57271295 29.1503854,8.14768971 29.1503854,6.36886925 C29.1503854,4.59004879 27.6998567,3.16502555 25.9327895,3.16502555 C24.7547447,3.16502555 24.2104967,3.16502555 24.3000454,3.16502555 Z" id="Combined-Shape"></path>
            <path d="M0.64218531,20 C19.3386755,20 29.1004111,20 29.9273921,20 C31.1678636,20 30.5162166,23.106223 28.1967809,23.106223 C25.8773452,23.106223 4.86945503,23.106223 2.43659499,23.106223 C0.00373494736,23.106223 -0.632877908,20 0.64218531,20 Z" id="Path-7"></path>
        </g>
    </g>
</svg>