<?xml version="1.0" encoding="UTF-8"?>
<svg width="50px" height="60px" viewBox="0 0 50 60" version="1.1" xmlns="http://www.w3.org/2000/svg" xmlns:xlink="http://www.w3.org/1999/xlink">
    <!-- Generator: Sketch 49.3 (51167) - http://www.bohemiancoding.com/sketch -->
    <title>ig_site</title>
    <desc>Created with Sketch.</desc>
    <defs></defs>
    <g id="ig_site" stroke="none" stroke-width="1" fill="none" fill-rule="evenodd">
        <g id="Group-3" transform="translate(8.000000, 8.000000)">
            <path d="M19.9550063,43.7893801 C30.1131001,33.8144893 35.0672578,25.3391055 34.8174793,18.3632287 C34.412855,7.06278027 27.0277515,0 17.4186353,0 C7.80951917,0 0.626727821,7.46636771 0.0197914049,18.3632287 C-0.355405059,25.0994594 4.60400158,33.570777 14.8980113,43.7771817 L14.8980156,43.7771774 C16.2965634,45.1638231 18.5497828,45.1692602 19.9550063,43.7893801 Z" id="Oval-4" stroke="#979797" stroke-width="0.5" fill="#0862A9"></path>
            <ellipse id="Oval" stroke="#979797" stroke-width="0.5" fill="#FFFFFF" cx="17.3988439" cy="17.1524664" rx="11.1271676" ry="11.3004484"></ellipse>
            <polygon id="Star" fill="#0862A9" points="17.6011561 21.3513544 12.9634285 24.2494904 14.1588654 18.7288662 10.0971552 14.9993885 15.4737034 14.4855912 17.6011561 9.28251121 19.7286087 14.4855912 25.1051569 14.9993885 21.0434467 18.7288662 22.2388836 24.2494904"></polygon>
        </g>
    </g>
</svg>